<?xml version="1.0" encoding="UTF-8" standalone="no"?>
<!DOCTYPE svg PUBLIC "-//W3C//DTD SVG 1.1//EN"
 "http://www.w3.org/Graphics/SVG/1.1/DTD/svg11.dtd">
<!-- Generated by graphviz version 2.40.1 (20161225.0304)
 -->
<!-- Title: G Pages: 1 -->
<svg width="577pt" height="3524pt"
 viewBox="0.00 0.00 576.83 3524.00" xmlns="http://www.w3.org/2000/svg" xmlns:xlink="http://www.w3.org/1999/xlink">
<g id="graph0" class="graph" transform="scale(1 1) rotate(0) translate(4 3520)">
<title>G</title>
<polygon fill="#ffffff" stroke="transparent" points="-4,4 -4,-3520 572.8285,-3520 572.8285,4 -4,4"/>
<!-- START -->
<g id="node1" class="node">
<title>START</title>
<ellipse fill="#ffffff" stroke="#000000" stroke-width="1.0001" cx="67.8285" cy="-3498" rx="38.1938" ry="18"/>
<text text-anchor="middle" x="67.8285" y="-3494.3" font-family="Times,serif" font-size="14.00" fill="#000000">START</text>
</g>
<!-- A1 -->
<g id="node2" class="node">
<title>A1</title>
<ellipse fill="#fa8072" stroke="#000000" stroke-width="1.0001" cx="67.8285" cy="-3411" rx="27" ry="18"/>
<text text-anchor="middle" x="67.8285" y="-3407.3" font-family="Times,serif" font-size="14.00" fill="#000000">A1</text>
</g>
<!-- START&#45;&gt;A1 -->
<g id="edge1" class="edge">
<title>START&#45;&gt;A1</title>
<path fill="none" stroke="#000000" d="M67.8285,-3479.9735C67.8285,-3468.1918 67.8285,-3452.5607 67.8285,-3439.1581"/>
<polygon fill="#000000" stroke="#000000" points="71.3286,-3439.0033 67.8285,-3429.0034 64.3286,-3439.0034 71.3286,-3439.0033"/>
<text text-anchor="middle" x="83.3285" y="-3450.8" font-family="Times,serif" font-size="14.00" fill="#000000">1.000</text>
</g>
<!-- A2 -->
<g id="node3" class="node">
<title>A2</title>
<ellipse fill="#fa8072" stroke="#000000" stroke-width="1.0001" cx="67.8285" cy="-3324" rx="27" ry="18"/>
<text text-anchor="middle" x="67.8285" y="-3320.3" font-family="Times,serif" font-size="14.00" fill="#000000">A2</text>
</g>
<!-- A1&#45;&gt;A2 -->
<g id="edge2" class="edge">
<title>A1&#45;&gt;A2</title>
<path fill="none" stroke="#000000" d="M67.8285,-3392.9735C67.8285,-3381.1918 67.8285,-3365.5607 67.8285,-3352.1581"/>
<polygon fill="#000000" stroke="#000000" points="71.3286,-3352.0033 67.8285,-3342.0034 64.3286,-3352.0034 71.3286,-3352.0033"/>
<text text-anchor="middle" x="83.3285" y="-3363.8" font-family="Times,serif" font-size="14.00" fill="#000000">1.000</text>
</g>
<!-- A3 -->
<g id="node4" class="node">
<title>A3</title>
<ellipse fill="#fa8072" stroke="#000000" stroke-width="1.0001" cx="67.8285" cy="-3237" rx="27" ry="18"/>
<text text-anchor="middle" x="67.8285" y="-3233.3" font-family="Times,serif" font-size="14.00" fill="#000000">A3</text>
</g>
<!-- A2&#45;&gt;A3 -->
<g id="edge3" class="edge">
<title>A2&#45;&gt;A3</title>
<path fill="none" stroke="#000000" d="M67.8285,-3305.9735C67.8285,-3294.1918 67.8285,-3278.5607 67.8285,-3265.1581"/>
<polygon fill="#000000" stroke="#000000" points="71.3286,-3265.0033 67.8285,-3255.0034 64.3286,-3265.0034 71.3286,-3265.0033"/>
<text text-anchor="middle" x="83.3285" y="-3276.8" font-family="Times,serif" font-size="14.00" fill="#000000">1.000</text>
</g>
<!-- A4 -->
<g id="node5" class="node">
<title>A4</title>
<ellipse fill="#fa8072" stroke="#000000" stroke-width="1.0001" cx="67.8285" cy="-3150" rx="27" ry="18"/>
<text text-anchor="middle" x="67.8285" y="-3146.3" font-family="Times,serif" font-size="14.00" fill="#000000">A4</text>
</g>
<!-- A3&#45;&gt;A4 -->
<g id="edge4" class="edge">
<title>A3&#45;&gt;A4</title>
<path fill="none" stroke="#000000" d="M67.8285,-3218.9735C67.8285,-3207.1918 67.8285,-3191.5607 67.8285,-3178.1581"/>
<polygon fill="#000000" stroke="#000000" points="71.3286,-3178.0033 67.8285,-3168.0034 64.3286,-3178.0034 71.3286,-3178.0033"/>
<text text-anchor="middle" x="83.3285" y="-3189.8" font-family="Times,serif" font-size="14.00" fill="#000000">1.000</text>
</g>
<!-- A5 -->
<g id="node6" class="node">
<title>A5</title>
<ellipse fill="#fa8072" stroke="#000000" stroke-width="1.0001" cx="67.8285" cy="-3063" rx="27" ry="18"/>
<text text-anchor="middle" x="67.8285" y="-3059.3" font-family="Times,serif" font-size="14.00" fill="#000000">A5</text>
</g>
<!-- A4&#45;&gt;A5 -->
<g id="edge5" class="edge">
<title>A4&#45;&gt;A5</title>
<path fill="none" stroke="#000000" d="M67.8285,-3131.9735C67.8285,-3120.1918 67.8285,-3104.5607 67.8285,-3091.1581"/>
<polygon fill="#000000" stroke="#000000" points="71.3286,-3091.0033 67.8285,-3081.0034 64.3286,-3091.0034 71.3286,-3091.0033"/>
<text text-anchor="middle" x="83.3285" y="-3102.8" font-family="Times,serif" font-size="14.00" fill="#000000">1.000</text>
</g>
<!-- A6 -->
<g id="node7" class="node">
<title>A6</title>
<ellipse fill="#fa8072" stroke="#000000" stroke-width="1.2644" cx="67.8285" cy="-2976" rx="27" ry="18"/>
<text text-anchor="middle" x="67.8285" y="-2972.3" font-family="Times,serif" font-size="14.00" fill="#000000">A6</text>
</g>
<!-- A5&#45;&gt;A6 -->
<g id="edge6" class="edge">
<title>A5&#45;&gt;A6</title>
<path fill="none" stroke="#000000" d="M67.8285,-3044.9735C67.8285,-3033.1918 67.8285,-3017.5607 67.8285,-3004.1581"/>
<polygon fill="#000000" stroke="#000000" points="71.3286,-3004.0033 67.8285,-2994.0034 64.3286,-3004.0034 71.3286,-3004.0033"/>
<text text-anchor="middle" x="83.3285" y="-3015.8" font-family="Times,serif" font-size="14.00" fill="#000000">1.000</text>
</g>
<!-- A7 -->
<g id="node8" class="node">
<title>A7</title>
<ellipse fill="#fa8072" stroke="#000000" stroke-width="1.0115" cx="67.8285" cy="-2889" rx="27" ry="18"/>
<text text-anchor="middle" x="67.8285" y="-2885.3" font-family="Times,serif" font-size="14.00" fill="#000000">A7</text>
</g>
<!-- A6&#45;&gt;A7 -->
<g id="edge7" class="edge">
<title>A6&#45;&gt;A7</title>
<path fill="none" stroke="#000000" d="M67.8285,-2957.9735C67.8285,-2946.1918 67.8285,-2930.5607 67.8285,-2917.1581"/>
<polygon fill="#000000" stroke="#000000" points="71.3286,-2917.0033 67.8285,-2907.0034 64.3286,-2917.0034 71.3286,-2917.0033"/>
<text text-anchor="middle" x="83.3285" y="-2928.8" font-family="Times,serif" font-size="14.00" fill="#000000">1.000</text>
</g>
<!-- A7&#45;&gt;A6 -->
<g id="edge8" class="edge">
<title>A7&#45;&gt;A6</title>
<path fill="none" stroke="#010101" d="M85.007,-2903.4058C90.8771,-2909.4054 96.7378,-2916.871 99.8285,-2925 103.7533,-2935.3231 98.9876,-2945.8123 92.0363,-2954.5721"/>
<polygon fill="#010101" stroke="#010101" points="89.3543,-2952.3193 85.2247,-2962.0763 94.5375,-2957.0242 89.3543,-2952.3193"/>
<text text-anchor="middle" x="117.3285" y="-2928.8" font-family="Times,serif" font-size="14.00" fill="#000000">0.990</text>
</g>
<!-- A8 -->
<g id="node9" class="node">
<title>A8</title>
<ellipse fill="#fa8072" stroke="#000000" stroke-width="1.2572" cx="67.8285" cy="-2802" rx="27" ry="18"/>
<text text-anchor="middle" x="67.8285" y="-2798.3" font-family="Times,serif" font-size="14.00" fill="#000000">A8</text>
</g>
<!-- A7&#45;&gt;A8 -->
<g id="edge9" class="edge">
<title>A7&#45;&gt;A8</title>
<path fill="none" stroke="#bcbcbc" d="M67.8285,-2870.9735C67.8285,-2859.1918 67.8285,-2843.5607 67.8285,-2830.1581"/>
<polygon fill="#bcbcbc" stroke="#bcbcbc" points="71.3286,-2830.0033 67.8285,-2820.0034 64.3286,-2830.0034 71.3286,-2830.0033"/>
<text text-anchor="middle" x="83.3285" y="-2841.8" font-family="Times,serif" font-size="14.00" fill="#000000">0.010</text>
</g>
<!-- A9 -->
<g id="node10" class="node">
<title>A9</title>
<ellipse fill="#fa8072" stroke="#000000" stroke-width="1.0057" cx="67.8285" cy="-2715" rx="27" ry="18"/>
<text text-anchor="middle" x="67.8285" y="-2711.3" font-family="Times,serif" font-size="14.00" fill="#000000">A9</text>
</g>
<!-- A8&#45;&gt;A9 -->
<g id="edge10" class="edge">
<title>A8&#45;&gt;A9</title>
<path fill="none" stroke="#000000" d="M67.8285,-2783.9735C67.8285,-2772.1918 67.8285,-2756.5607 67.8285,-2743.1581"/>
<polygon fill="#000000" stroke="#000000" points="71.3286,-2743.0033 67.8285,-2733.0034 64.3286,-2743.0034 71.3286,-2743.0033"/>
<text text-anchor="middle" x="83.3285" y="-2754.8" font-family="Times,serif" font-size="14.00" fill="#000000">1.000</text>
</g>
<!-- A10 -->
<g id="node11" class="node">
<title>A10</title>
<ellipse fill="#fa8072" stroke="#000000" stroke-width="1.0057" cx="67.8285" cy="-2628" rx="27" ry="18"/>
<text text-anchor="middle" x="67.8285" y="-2624.3" font-family="Times,serif" font-size="14.00" fill="#000000">A10</text>
</g>
<!-- A9&#45;&gt;A10 -->
<g id="edge11" class="edge">
<title>A9&#45;&gt;A10</title>
<path fill="none" stroke="#000000" d="M67.8285,-2696.9735C67.8285,-2685.1918 67.8285,-2669.5607 67.8285,-2656.1581"/>
<polygon fill="#000000" stroke="#000000" points="71.3286,-2656.0033 67.8285,-2646.0034 64.3286,-2656.0034 71.3286,-2656.0033"/>
<text text-anchor="middle" x="83.3285" y="-2667.8" font-family="Times,serif" font-size="14.00" fill="#000000">1.000</text>
</g>
<!-- A11 -->
<g id="node12" class="node">
<title>A11</title>
<ellipse fill="#fa8072" stroke="#000000" stroke-width="1.0057" cx="67.8285" cy="-2541" rx="27" ry="18"/>
<text text-anchor="middle" x="67.8285" y="-2537.3" font-family="Times,serif" font-size="14.00" fill="#000000">A11</text>
</g>
<!-- A10&#45;&gt;A11 -->
<g id="edge12" class="edge">
<title>A10&#45;&gt;A11</title>
<path fill="none" stroke="#000000" d="M67.8285,-2609.9735C67.8285,-2598.1918 67.8285,-2582.5607 67.8285,-2569.1581"/>
<polygon fill="#000000" stroke="#000000" points="71.3286,-2569.0033 67.8285,-2559.0034 64.3286,-2569.0034 71.3286,-2569.0033"/>
<text text-anchor="middle" x="83.3285" y="-2580.8" font-family="Times,serif" font-size="14.00" fill="#000000">1.000</text>
</g>
<!-- A12 -->
<g id="node13" class="node">
<title>A12</title>
<ellipse fill="#fa8072" stroke="#000000" stroke-width="1.927" cx="73.8285" cy="-2367" rx="27" ry="18"/>
<text text-anchor="middle" x="73.8285" y="-2363.3" font-family="Times,serif" font-size="14.00" fill="#000000">A12</text>
</g>
<!-- A11&#45;&gt;A12 -->
<g id="edge13" class="edge">
<title>A11&#45;&gt;A12</title>
<path fill="none" stroke="#929292" d="M56.9527,-2524.47C53.6683,-2518.5738 50.4936,-2511.7226 48.8285,-2505 39.3914,-2466.9011 51.7524,-2422.064 62.201,-2394.0817"/>
<polygon fill="#929292" stroke="#929292" points="65.5349,-2395.1666 65.9201,-2384.5788 59.0163,-2392.6155 65.5349,-2395.1666"/>
<text text-anchor="middle" x="66.3285" y="-2450.3" font-family="Times,serif" font-size="14.00" fill="#000000">0.160</text>
</g>
<!-- A22 -->
<g id="node23" class="node">
<title>A22</title>
<ellipse fill="#fa8072" stroke="#000000" stroke-width="1.0036" cx="121.8285" cy="-2454" rx="27" ry="18"/>
<text text-anchor="middle" x="121.8285" y="-2450.3" font-family="Times,serif" font-size="14.00" fill="#000000">A22</text>
</g>
<!-- A11&#45;&gt;A22 -->
<g id="edge31" class="edge">
<title>A11&#45;&gt;A22</title>
<path fill="none" stroke="#636363" d="M57.7957,-2523.9619C53.0814,-2513.5612 49.6995,-2500.3245 55.8285,-2490 59.8455,-2483.2331 74.7221,-2474.8535 89.3364,-2467.882"/>
<polygon fill="#636363" stroke="#636363" points="91.1634,-2470.8942 98.7855,-2463.5351 88.2379,-2464.5348 91.1634,-2470.8942"/>
<text text-anchor="middle" x="71.3285" y="-2493.8" font-family="Times,serif" font-size="14.00" fill="#000000">0.360</text>
</g>
<!-- A23 -->
<g id="node24" class="node">
<title>A23</title>
<ellipse fill="#fa8072" stroke="#000000" stroke-width="1.3883" cx="275.8285" cy="-2193" rx="27" ry="18"/>
<text text-anchor="middle" x="275.8285" y="-2189.3" font-family="Times,serif" font-size="14.00" fill="#000000">A23</text>
</g>
<!-- A11&#45;&gt;A23 -->
<g id="edge38" class="edge">
<title>A11&#45;&gt;A23</title>
<path fill="none" stroke="#4b4b4b" d="M78.97,-2524.1416C87.4373,-2512.7064 100.1142,-2498.2248 114.8285,-2490 151.1967,-2469.6714 177.0619,-2501.1523 206.8285,-2472 229.2497,-2450.0414 214.4859,-2433.5119 221.8285,-2403 238.9293,-2331.9382 246.1232,-2314.9137 263.8285,-2244 265.7068,-2236.4766 267.6649,-2228.3083 269.4413,-2220.759"/>
<polygon fill="#4b4b4b" stroke="#4b4b4b" points="272.8623,-2221.5004 271.7265,-2210.9666 266.0454,-2219.9096 272.8623,-2221.5004"/>
<text text-anchor="middle" x="250.3285" y="-2363.3" font-family="Times,serif" font-size="14.00" fill="#000000">0.480</text>
</g>
<!-- A13 -->
<g id="node14" class="node">
<title>A13</title>
<ellipse fill="#fa8072" stroke="#000000" stroke-width="1.5416" cx="73.8285" cy="-2280" rx="27" ry="18"/>
<text text-anchor="middle" x="73.8285" y="-2276.3" font-family="Times,serif" font-size="14.00" fill="#000000">A13</text>
</g>
<!-- A12&#45;&gt;A13 -->
<g id="edge14" class="edge">
<title>A12&#45;&gt;A13</title>
<path fill="none" stroke="#000000" d="M73.8285,-2348.9735C73.8285,-2337.1918 73.8285,-2321.5607 73.8285,-2308.1581"/>
<polygon fill="#000000" stroke="#000000" points="77.3286,-2308.0033 73.8285,-2298.0034 70.3286,-2308.0034 77.3286,-2308.0033"/>
<text text-anchor="middle" x="89.3285" y="-2319.8" font-family="Times,serif" font-size="14.00" fill="#000000">1.000</text>
</g>
<!-- A13&#45;&gt;A12 -->
<g id="edge15" class="edge">
<title>A13&#45;&gt;A12</title>
<path fill="none" stroke="#161616" d="M55.2987,-2293.3442C44.1708,-2303.1234 33.1731,-2317.0701 38.8285,-2331 41.0971,-2336.5881 44.696,-2341.7851 48.7404,-2346.3944"/>
<polygon fill="#161616" stroke="#161616" points="46.2966,-2348.9009 55.8111,-2353.5618 51.2798,-2343.9849 46.2966,-2348.9009"/>
<text text-anchor="middle" x="54.3285" y="-2319.8" font-family="Times,serif" font-size="14.00" fill="#000000">0.814</text>
</g>
<!-- A14 -->
<g id="node15" class="node">
<title>A14</title>
<ellipse fill="#fa8072" stroke="#000000" stroke-width="1.2715" cx="203.8285" cy="-1149" rx="27" ry="18"/>
<text text-anchor="middle" x="203.8285" y="-1145.3" font-family="Times,serif" font-size="14.00" fill="#000000">A14</text>
</g>
<!-- A13&#45;&gt;A14 -->
<g id="edge16" class="edge">
<title>A13&#45;&gt;A14</title>
<path fill="none" stroke="#bdbdbd" d="M69.8724,-2262.1297C68.7263,-2256.3682 67.5823,-2249.9374 66.8285,-2244 64.9777,-2229.4234 65.3575,-2225.6841 64.8285,-2211 61.4679,-2117.7261 61.544,-2094.236 65.8285,-2001 67.6076,-1962.2823 66.809,-1952.4321 71.8285,-1914 83.9634,-1821.0872 59.2944,-1784.5901 111.8285,-1707 120.1228,-1694.7497 131.5818,-1701.2824 139.8285,-1689 153.4342,-1668.7358 146.9356,-1659.236 149.8285,-1635 167.2375,-1489.1506 157.1776,-1451.498 167.8285,-1305 171.739,-1251.212 165.8778,-1235.104 185.8285,-1185 187.1347,-1181.7195 188.6266,-1178.3315 190.1799,-1175.0061"/>
<polygon fill="#bdbdbd" stroke="#bdbdbd" points="193.3639,-1176.4623 194.6173,-1165.9418 187.0768,-1173.3844 193.3639,-1176.4623"/>
<text text-anchor="middle" x="127.3285" y="-1710.8" font-family="Times,serif" font-size="14.00" fill="#000000">0.006</text>
</g>
<!-- A13&#45;&gt;A23 -->
<g id="edge34" class="edge">
<title>A13&#45;&gt;A23</title>
<path fill="none" stroke="#8e8e8e" d="M93.2644,-2267.0865C115.3332,-2252.4546 148.7045,-2230.4358 151.8285,-2229 180.2925,-2215.9177 214.631,-2206.3907 239.9485,-2200.4357"/>
<polygon fill="#8e8e8e" stroke="#8e8e8e" points="240.8876,-2203.8115 249.8604,-2198.1778 239.3327,-2196.9864 240.8876,-2203.8115"/>
<text text-anchor="middle" x="167.3285" y="-2232.8" font-family="Times,serif" font-size="14.00" fill="#000000">0.176</text>
</g>
<!-- A29 -->
<g id="node30" class="node">
<title>A29</title>
<ellipse fill="#fa8072" stroke="#000000" stroke-width="1.3134" cx="226.8285" cy="-1671" rx="27" ry="18"/>
<text text-anchor="middle" x="226.8285" y="-1667.3" font-family="Times,serif" font-size="14.00" fill="#000000">A29</text>
</g>
<!-- A13&#45;&gt;A29 -->
<g id="edge54" class="edge">
<title>A13&#45;&gt;A29</title>
<path fill="none" stroke="#bebebe" d="M72.6007,-2262.0018C69.5955,-2214.0572 62.8825,-2079.3173 73.8285,-1968 80.0807,-1904.4163 85.1539,-1888.676 101.8285,-1827 112.5031,-1787.5166 108.5142,-1773.6055 131.8285,-1740 148.0231,-1716.6569 174.7426,-1698.2792 195.7267,-1686.3793"/>
<polygon fill="#bebebe" stroke="#bebebe" points="197.5137,-1689.3914 204.613,-1681.5268 194.1588,-1683.2476 197.5137,-1689.3914"/>
<text text-anchor="middle" x="89.3285" y="-1971.8" font-family="Times,serif" font-size="14.00" fill="#000000">0.004</text>
</g>
<!-- A35 -->
<g id="node36" class="node">
<title>A35</title>
<ellipse fill="#fa8072" stroke="#000000" stroke-width="1.2507" cx="117.8285" cy="-2193" rx="27" ry="18"/>
<text text-anchor="middle" x="117.8285" y="-2189.3" font-family="Times,serif" font-size="14.00" fill="#000000">A35</text>
</g>
<!-- A13&#45;&gt;A35 -->
<g id="edge82" class="edge">
<title>A13&#45;&gt;A35</title>
<path fill="none" stroke="#bfbfbf" d="M81.2606,-2262.3182C85.5626,-2252.4032 91.2219,-2239.8785 96.8285,-2229 98.5542,-2225.6515 100.4465,-2222.176 102.3664,-2218.7637"/>
<polygon fill="#bfbfbf" stroke="#bfbfbf" points="105.4513,-2220.4203 107.4168,-2210.0093 99.388,-2216.9222 105.4513,-2220.4203"/>
<text text-anchor="middle" x="112.3285" y="-2232.8" font-family="Times,serif" font-size="14.00" fill="#000000">0.000</text>
</g>
<!-- A15 -->
<g id="node16" class="node">
<title>A15</title>
<ellipse fill="#fa8072" stroke="#000000" stroke-width="1.0172" cx="203.8285" cy="-1062" rx="27" ry="18"/>
<text text-anchor="middle" x="203.8285" y="-1058.3" font-family="Times,serif" font-size="14.00" fill="#000000">A15</text>
</g>
<!-- A14&#45;&gt;A15 -->
<g id="edge17" class="edge">
<title>A14&#45;&gt;A15</title>
<path fill="none" stroke="#000000" d="M203.8285,-1130.9735C203.8285,-1119.1918 203.8285,-1103.5607 203.8285,-1090.1581"/>
<polygon fill="#000000" stroke="#000000" points="207.3286,-1090.0033 203.8285,-1080.0034 200.3286,-1090.0034 207.3286,-1090.0033"/>
<text text-anchor="middle" x="219.3285" y="-1101.8" font-family="Times,serif" font-size="14.00" fill="#000000">1.000</text>
</g>
<!-- A16 -->
<g id="node17" class="node">
<title>A16</title>
<ellipse fill="#fa8072" stroke="#000000" stroke-width="1.0172" cx="203.8285" cy="-975" rx="27" ry="18"/>
<text text-anchor="middle" x="203.8285" y="-971.3" font-family="Times,serif" font-size="14.00" fill="#000000">A16</text>
</g>
<!-- A15&#45;&gt;A16 -->
<g id="edge18" class="edge">
<title>A15&#45;&gt;A16</title>
<path fill="none" stroke="#000000" d="M203.8285,-1043.9735C203.8285,-1032.1918 203.8285,-1016.5607 203.8285,-1003.1581"/>
<polygon fill="#000000" stroke="#000000" points="207.3286,-1003.0033 203.8285,-993.0034 200.3286,-1003.0034 207.3286,-1003.0033"/>
<text text-anchor="middle" x="219.3285" y="-1014.8" font-family="Times,serif" font-size="14.00" fill="#000000">1.000</text>
</g>
<!-- A17 -->
<g id="node18" class="node">
<title>A17</title>
<ellipse fill="#fa8072" stroke="#000000" stroke-width="1.0172" cx="270.8285" cy="-801" rx="27" ry="18"/>
<text text-anchor="middle" x="270.8285" y="-797.3" font-family="Times,serif" font-size="14.00" fill="#000000">A17</text>
</g>
<!-- A16&#45;&gt;A17 -->
<g id="edge19" class="edge">
<title>A16&#45;&gt;A17</title>
<path fill="none" stroke="#2c2c2c" d="M199.3531,-956.902C194.9472,-935.1348 190.6098,-898.029 203.8285,-870 213.0229,-850.504 229.9818,-833.1246 244.5363,-820.6847"/>
<polygon fill="#2c2c2c" stroke="#2c2c2c" points="246.804,-823.3514 252.3102,-814.2997 242.3611,-817.942 246.804,-823.3514"/>
<text text-anchor="middle" x="219.3285" y="-884.3" font-family="Times,serif" font-size="14.00" fill="#000000">0.667</text>
</g>
<!-- A19 -->
<g id="node20" class="node">
<title>A19</title>
<ellipse fill="#fa8072" stroke="#000000" stroke-width="1.0057" cx="270.8285" cy="-888" rx="27" ry="18"/>
<text text-anchor="middle" x="270.8285" y="-884.3" font-family="Times,serif" font-size="14.00" fill="#000000">A19</text>
</g>
<!-- A16&#45;&gt;A19 -->
<g id="edge22" class="edge">
<title>A16&#45;&gt;A19</title>
<path fill="none" stroke="#696969" d="M201.2637,-956.7012C200.7421,-946.3516 201.7421,-933.6016 207.8285,-924 211.8013,-917.7325 225.4602,-909.6093 239.0486,-902.6657"/>
<polygon fill="#696969" stroke="#696969" points="240.9085,-905.6508 248.3248,-898.0845 237.8088,-899.3745 240.9085,-905.6508"/>
<text text-anchor="middle" x="223.3285" y="-927.8" font-family="Times,serif" font-size="14.00" fill="#000000">0.333</text>
</g>
<!-- A18 -->
<g id="node19" class="node">
<title>A18</title>
<ellipse fill="#fa8072" stroke="#000000" stroke-width="1.2715" cx="253.8285" cy="-453" rx="27" ry="18"/>
<text text-anchor="middle" x="253.8285" y="-449.3" font-family="Times,serif" font-size="14.00" fill="#000000">A18</text>
</g>
<!-- A17&#45;&gt;A18 -->
<g id="edge20" class="edge">
<title>A17&#45;&gt;A18</title>
<path fill="none" stroke="#6f6f6f" d="M262.4017,-783.76C249.1368,-755.5594 223.9567,-697.4462 214.8285,-645 210.7145,-621.3632 212.4318,-542.4778 217.8285,-522 221.9014,-506.545 229.8966,-490.6405 237.3198,-478.0018"/>
<polygon fill="#6f6f6f" stroke="#6f6f6f" points="240.3307,-479.7868 242.5597,-469.4291 234.3581,-476.1361 240.3307,-479.7868"/>
<text text-anchor="middle" x="230.3285" y="-623.3" font-family="Times,serif" font-size="14.00" fill="#000000">0.307</text>
</g>
<!-- A20 -->
<g id="node21" class="node">
<title>A20</title>
<ellipse fill="#fa8072" stroke="#000000" stroke-width="1.0057" cx="281.8285" cy="-627" rx="27" ry="18"/>
<text text-anchor="middle" x="281.8285" y="-623.3" font-family="Times,serif" font-size="14.00" fill="#000000">A20</text>
</g>
<!-- A17&#45;&gt;A20 -->
<g id="edge24" class="edge">
<title>A17&#45;&gt;A20</title>
<path fill="none" stroke="#949494" d="M269.0076,-782.7043C268.5231,-777.0358 268.0682,-770.7649 267.8285,-765 266.2868,-727.9369 273.3245,-666.4814 273.8285,-663 274.2192,-660.3011 274.7013,-657.5037 275.2337,-654.7153"/>
<polygon fill="#949494" stroke="#949494" points="278.6759,-655.3538 277.308,-644.8477 271.8256,-653.9137 278.6759,-655.3538"/>
<text text-anchor="middle" x="285.3285" y="-710.3" font-family="Times,serif" font-size="14.00" fill="#000000">0.153</text>
</g>
<!-- A27 -->
<g id="node28" class="node">
<title>A27</title>
<ellipse fill="#fa8072" stroke="#000000" stroke-width="1.0093" cx="349.8285" cy="-714" rx="27" ry="18"/>
<text text-anchor="middle" x="349.8285" y="-710.3" font-family="Times,serif" font-size="14.00" fill="#000000">A27</text>
</g>
<!-- A17&#45;&gt;A27 -->
<g id="edge46" class="edge">
<title>A17&#45;&gt;A27</title>
<path fill="none" stroke="#414141" d="M269.756,-782.9467C270.0218,-772.4286 271.9778,-759.4243 278.8285,-750 281.5025,-746.3214 300.1963,-736.9086 317.7296,-728.6307"/>
<polygon fill="#414141" stroke="#414141" points="319.6598,-731.5924 327.2418,-724.1922 316.6998,-725.249 319.6598,-731.5924"/>
<text text-anchor="middle" x="294.3285" y="-753.8" font-family="Times,serif" font-size="14.00" fill="#000000">0.540</text>
</g>
<!-- A18&#45;&gt;A8 -->
<g id="edge26" class="edge">
<title>A18&#45;&gt;A8</title>
<path fill="none" stroke="#bdbdbd" d="M235.6016,-466.4411C209.6664,-486.797 163.1221,-528.1791 143.8285,-576 65.6617,-769.7427 112.6504,-1306.6095 97.8285,-1515 90.7029,-1615.1815 85.2369,-1639.918 76.8285,-1740 57.3511,-1971.8298 55.0881,-2029.9945 37.8285,-2262 22.2971,-2470.7734 -18.0249,-2529.6722 31.8285,-2733 35.6345,-2748.5229 43.6094,-2764.4325 51.0881,-2777.0572"/>
<polygon fill="#bdbdbd" stroke="#bdbdbd" points="48.144,-2778.9511 56.3792,-2785.6168 54.0983,-2775.2704 48.144,-2778.9511"/>
<text text-anchor="middle" x="104.3285" y="-1623.8" font-family="Times,serif" font-size="14.00" fill="#000000">0.007</text>
</g>
<!-- A18&#45;&gt;A14 -->
<g id="edge21" class="edge">
<title>A18&#45;&gt;A14</title>
<path fill="none" stroke="#bbbbbb" d="M278.7557,-460.3271C294.847,-466.0574 315.3941,-475.3654 329.8285,-489 399.113,-554.4455 375.6019,-601.2431 385.8285,-696 387.5453,-711.9076 393.7116,-718.0768 385.8285,-732 378.1674,-745.5309 365.4521,-737.7868 355.8285,-750 310.85,-807.0817 351.8069,-848.9183 306.8285,-906 297.2048,-918.2132 285.792,-911.2944 276.8285,-924 227.4364,-994.0119 278.7633,-1037.1947 238.8285,-1113 236.1368,-1118.1093 232.4943,-1122.9852 228.5733,-1127.4062"/>
<polygon fill="#bbbbbb" stroke="#bbbbbb" points="225.8217,-1125.2154 221.3601,-1134.825 230.8405,-1130.0952 225.8217,-1125.2154"/>
<text text-anchor="middle" x="352.3285" y="-797.3" font-family="Times,serif" font-size="14.00" fill="#000000">0.013</text>
</g>
<!-- A21 -->
<g id="node22" class="node">
<title>A21</title>
<ellipse fill="#fa8072" stroke="#000000" stroke-width="1.5218" cx="160.8285" cy="-279" rx="27" ry="18"/>
<text text-anchor="middle" x="160.8285" y="-275.3" font-family="Times,serif" font-size="14.00" fill="#000000">A21</text>
</g>
<!-- A18&#45;&gt;A21 -->
<g id="edge27" class="edge">
<title>A18&#45;&gt;A21</title>
<path fill="none" stroke="#575757" d="M262.6062,-435.8152C272.9187,-415.6085 288.6605,-384.7022 288.8285,-384 292.5495,-368.4387 297.0298,-361.7382 288.8285,-348 269.0058,-314.7951 227.0754,-296.6225 196.5921,-287.3815"/>
<polygon fill="#575757" stroke="#575757" points="197.3175,-283.9491 186.7416,-284.5811 195.4033,-290.6823 197.3175,-283.9491"/>
<text text-anchor="middle" x="308.3285" y="-362.3" font-family="Times,serif" font-size="14.00" fill="#000000">0.420</text>
</g>
<!-- A26 -->
<g id="node27" class="node">
<title>A26</title>
<ellipse fill="#fa8072" stroke="#000000" stroke-width="1.0726" cx="203.8285" cy="-366" rx="27" ry="18"/>
<text text-anchor="middle" x="203.8285" y="-362.3" font-family="Times,serif" font-size="14.00" fill="#000000">A26</text>
</g>
<!-- A18&#45;&gt;A26 -->
<g id="edge43" class="edge">
<title>A18&#45;&gt;A26</title>
<path fill="none" stroke="#3d3d3d" d="M232.6703,-441.3133C223.7837,-435.2618 214.2654,-427.0263 208.8285,-417 205.0964,-410.1178 203.3393,-401.9407 202.6404,-394.1722"/>
<polygon fill="#3d3d3d" stroke="#3d3d3d" points="206.131,-393.8533 202.2571,-383.9921 199.1359,-394.1167 206.131,-393.8533"/>
<text text-anchor="middle" x="224.3285" y="-405.8" font-family="Times,serif" font-size="14.00" fill="#000000">0.560</text>
</g>
<!-- A19&#45;&gt;A17 -->
<g id="edge23" class="edge">
<title>A19&#45;&gt;A17</title>
<path fill="none" stroke="#000000" d="M270.8285,-869.9735C270.8285,-858.1918 270.8285,-842.5607 270.8285,-829.1581"/>
<polygon fill="#000000" stroke="#000000" points="274.3286,-829.0033 270.8285,-819.0034 267.3286,-829.0034 274.3286,-829.0033"/>
<text text-anchor="middle" x="286.3285" y="-840.8" font-family="Times,serif" font-size="14.00" fill="#000000">1.000</text>
</g>
<!-- A20&#45;&gt;A18 -->
<g id="edge25" class="edge">
<title>A20&#45;&gt;A18</title>
<path fill="none" stroke="#4f4f4f" d="M287.5151,-609.1506C295.1385,-581.9903 305.8629,-529.2 288.8285,-489 286.4754,-483.4469 282.8377,-478.2659 278.7817,-473.6615"/>
<polygon fill="#4f4f4f" stroke="#4f4f4f" points="281.227,-471.1564 271.7137,-466.493 276.2424,-476.0711 281.227,-471.1564"/>
<text text-anchor="middle" x="313.3285" y="-536.3" font-family="Times,serif" font-size="14.00" fill="#000000">0.460</text>
</g>
<!-- A28 -->
<g id="node29" class="node">
<title>A28</title>
<ellipse fill="#fa8072" stroke="#000000" stroke-width="1.0031" cx="253.8285" cy="-540" rx="27" ry="18"/>
<text text-anchor="middle" x="253.8285" y="-536.3" font-family="Times,serif" font-size="14.00" fill="#000000">A28</text>
</g>
<!-- A20&#45;&gt;A28 -->
<g id="edge49" class="edge">
<title>A20&#45;&gt;A28</title>
<path fill="none" stroke="#414141" d="M259.623,-616.7341C249.4884,-610.7746 238.5016,-602.2077 232.8285,-591 228.5729,-582.5929 230.6921,-573.1132 234.9138,-564.6279"/>
<polygon fill="#414141" stroke="#414141" points="237.9983,-566.2891 240.118,-555.9084 231.9875,-562.7015 237.9983,-566.2891"/>
<text text-anchor="middle" x="248.3285" y="-579.8" font-family="Times,serif" font-size="14.00" fill="#000000">0.540</text>
</g>
<!-- A21&#45;&gt;A8 -->
<g id="edge30" class="edge">
<title>A21&#45;&gt;A8</title>
<path fill="none" stroke="#bebebe" d="M187.2555,-283.5226C232.5425,-291.4166 321.3342,-307.5754 333.8285,-315 350.364,-324.8261 352.437,-331.2138 361.8285,-348 401.5614,-419.0177 397.3094,-443.5197 418.8285,-522 425.3297,-545.7103 426.3176,-551.8319 430.8285,-576 433.5501,-590.5822 434.7142,-594.2078 435.8285,-609 438.132,-639.58 436.6793,-647.3451 435.8285,-678 431.6723,-827.7359 407.1262,-863.0293 383.8285,-1011 378.379,-1045.6109 368.0094,-1080.8191 371.8285,-1113 374.7376,-1137.5137 369.0858,-1147.9855 384.8285,-1167 402.3979,-1188.2209 482.0945,-1195.3846 497.8285,-1218 537.4769,-1274.9891 509.6677,-1304.6818 505.8285,-1374 502.2518,-1438.578 498.7335,-1457.1414 469.8285,-1515 449.2774,-1556.1366 440.3407,-1564.4278 413.8285,-1602 379.8475,-1650.1567 359.7757,-1654.5822 332.8285,-1707 299.7212,-1771.4001 330.3113,-1805.8622 285.8285,-1863 276.2765,-1875.2694 265.8629,-1869.122 255.8285,-1881 200.8486,-1946.0806 169.2045,-2004.6204 223.8285,-2070 249.4242,-2100.6356 286.5865,-2057.0723 311.8285,-2088 346.3941,-2130.3516 318.2872,-2156.7162 311.8285,-2211 302.4293,-2289.9971 296.9538,-2310.2129 269.8285,-2385 255.122,-2425.5471 260.958,-2445.6273 226.8285,-2472 195.5841,-2496.1433 166.744,-2461.1094 139.8285,-2490 55.4642,-2580.555 156.9165,-2654.6806 102.8285,-2766 100.3046,-2771.1943 96.7431,-2776.1111 92.8499,-2780.5462"/>
<polygon fill="#bebebe" stroke="#bebebe" points="90.0983,-2778.3554 85.6366,-2787.965 95.1171,-2783.2352 90.0983,-2778.3554"/>
<text text-anchor="middle" x="475.3285" y="-1536.8" font-family="Times,serif" font-size="14.00" fill="#000000">0.003</text>
</g>
<!-- A21&#45;&gt;A14 -->
<g id="edge29" class="edge">
<title>A21&#45;&gt;A14</title>
<path fill="none" stroke="#bbbbbb" d="M159.8309,-297.3072C154.3045,-401.9241 129.0659,-924.8406 167.8285,-1080 171.7023,-1095.5062 179.6824,-1111.4145 187.1469,-1124.0426"/>
<polygon fill="#bbbbbb" stroke="#bbbbbb" points="184.1983,-1125.9293 192.425,-1132.6055 190.1572,-1122.2562 184.1983,-1125.9293"/>
<text text-anchor="middle" x="162.3285" y="-710.3" font-family="Times,serif" font-size="14.00" fill="#000000">0.013</text>
</g>
<!-- A21&#45;&gt;A21 -->
<g id="edge28" class="edge">
<title>A21&#45;&gt;A21</title>
<path fill="none" stroke="#030303" d="M185.3609,-286.752C196.3363,-287.4902 205.8285,-284.9063 205.8285,-279 205.8285,-275.0317 201.5435,-272.5632 195.4028,-271.5944"/>
<polygon fill="#030303" stroke="#030303" points="195.4757,-268.0949 185.3609,-271.248 195.2343,-275.0908 195.4757,-268.0949"/>
<text text-anchor="middle" x="221.3285" y="-275.3" font-family="Times,serif" font-size="14.00" fill="#000000">0.969</text>
</g>
<!-- A25 -->
<g id="node26" class="node">
<title>A25</title>
<ellipse fill="#fa8072" stroke="#000000" stroke-width="3.5377" cx="122.8285" cy="-192" rx="27" ry="18"/>
<text text-anchor="middle" x="122.8285" y="-188.3" font-family="Times,serif" font-size="14.00" fill="#000000">A25</text>
</g>
<!-- A21&#45;&gt;A25 -->
<g id="edge39" class="edge">
<title>A21&#45;&gt;A25</title>
<path fill="none" stroke="#bdbdbd" d="M153.1386,-261.3943C147.7985,-249.1683 140.5844,-232.6517 134.5338,-218.7992"/>
<polygon fill="#bdbdbd" stroke="#bdbdbd" points="137.5873,-217.0457 130.3772,-209.2827 131.1725,-219.8476 137.5873,-217.0457"/>
<text text-anchor="middle" x="159.3285" y="-231.8" font-family="Times,serif" font-size="14.00" fill="#000000">0.007</text>
</g>
<!-- A21&#45;&gt;A29 -->
<g id="edge51" class="edge">
<title>A21&#45;&gt;A29</title>
<path fill="none" stroke="#bdbdbd" d="M186.7505,-284.4014C211.4479,-290.1061 249.2855,-300.3203 279.8285,-315 303.162,-326.2147 315.776,-325.088 327.8285,-348 335.2772,-362.1604 331.5045,-368.428 327.8285,-384 325.7735,-392.705 320.8834,-393.295 318.8285,-402 317.2968,-408.4883 317.0943,-410.5628 318.8285,-417 332.8673,-469.1124 361.0839,-471.3894 379.8285,-522 412.4059,-609.9598 415.8534,-639.4123 400.8285,-732 386.1537,-822.4298 353.86,-836.7812 325.8285,-924 321.2409,-938.2739 321.6171,-942.2686 318.8285,-957 314.303,-980.9065 312.9445,-986.8693 309.8285,-1011 304.8555,-1049.51 303.6081,-1059.211 301.8285,-1098 300.4229,-1128.6344 283.6392,-1142.31 301.8285,-1167 317.8373,-1188.7304 335.236,-1173.8777 359.8285,-1185 385.456,-1196.5904 395.1084,-1197.0078 413.8285,-1218 436.3271,-1243.2294 428.7433,-1257.8313 445.8285,-1287 450.816,-1295.5151 455.7923,-1295.6104 458.8285,-1305 501.5946,-1437.2579 438.5157,-1486.736 360.8285,-1602 349.5817,-1618.6868 346.6998,-1624.0321 329.8285,-1635 309.3559,-1648.309 283.3849,-1657.3427 262.6438,-1663.0321"/>
<polygon fill="#bdbdbd" stroke="#bdbdbd" points="261.7249,-1659.6546 252.9289,-1665.5605 263.488,-1666.4289 261.7249,-1659.6546"/>
<text text-anchor="middle" x="334.3285" y="-971.3" font-family="Times,serif" font-size="14.00" fill="#000000">0.007</text>
</g>
<!-- A21&#45;&gt;A35 -->
<g id="edge70" class="edge">
<title>A21&#45;&gt;A35</title>
<path fill="none" stroke="#bebebe" d="M187.6634,-281.1864C218.7407,-284.6582 270.6739,-293.4177 309.8285,-315 328.2707,-325.1656 333.8571,-329.452 343.8285,-348 358.6049,-375.486 347.9811,-387.0742 356.8285,-417 371.1256,-465.3591 383.9088,-474.1505 399.8285,-522 421.9327,-588.4388 425.0597,-608.0552 421.8285,-678 414.8274,-829.5457 374.8531,-861.9036 346.8285,-1011 344.8263,-1021.6518 332.8342,-1076.8209 335.8285,-1113 337.8353,-1137.2481 329.5724,-1148.046 344.8285,-1167 358.3348,-1183.7803 370.887,-1174.7423 389.8285,-1185 412.2723,-1197.1544 420.4875,-1198.3931 436.8285,-1218 497.9999,-1291.3971 501.4518,-1334.2863 482.8285,-1428 474.672,-1469.0437 466.8188,-1478.2373 446.8285,-1515 424.3903,-1556.2644 415.4852,-1564.7842 386.8285,-1602 385.6566,-1603.5218 297.6839,-1705.2803 296.8285,-1707 265.2232,-1770.5339 308.2421,-1808.4743 262.8285,-1863 249.5693,-1878.9195 234.3023,-1866.1763 219.8285,-1881 190.8259,-1910.7037 197.3167,-1928.1067 185.8285,-1968 162.1653,-2050.1709 187.5937,-2080.2811 149.8285,-2157 147.4879,-2161.7547 144.3451,-2166.3615 140.9407,-2170.6023"/>
<polygon fill="#bebebe" stroke="#bebebe" points="138.191,-2168.429 134.2136,-2178.249 143.4466,-2173.0527 138.191,-2168.429"/>
<text text-anchor="middle" x="478.3285" y="-1232.3" font-family="Times,serif" font-size="14.00" fill="#000000">0.001</text>
</g>
<!-- A22&#45;&gt;A12 -->
<g id="edge33" class="edge">
<title>A22&#45;&gt;A12</title>
<path fill="none" stroke="#828282" d="M99.623,-2443.7341C89.4884,-2437.7746 78.5016,-2429.2077 72.8285,-2418 69.3089,-2411.0469 68.3272,-2402.8476 68.5545,-2395.0806"/>
<polygon fill="#828282" stroke="#828282" points="72.0588,-2395.1932 69.4889,-2384.9148 65.0882,-2394.5524 72.0588,-2395.1932"/>
<text text-anchor="middle" x="88.3285" y="-2406.8" font-family="Times,serif" font-size="14.00" fill="#000000">0.226</text>
</g>
<!-- A22&#45;&gt;A22 -->
<g id="edge32" class="edge">
<title>A22&#45;&gt;A22</title>
<path fill="none" stroke="#575757" d="M146.3609,-2461.752C157.3363,-2462.4902 166.8285,-2459.9063 166.8285,-2454 166.8285,-2450.0317 162.5435,-2447.5632 156.4028,-2446.5944"/>
<polygon fill="#575757" stroke="#575757" points="156.4757,-2443.0949 146.3609,-2446.248 156.2343,-2450.0908 156.4757,-2443.0949"/>
<text text-anchor="middle" x="182.3285" y="-2450.3" font-family="Times,serif" font-size="14.00" fill="#000000">0.419</text>
</g>
<!-- A22&#45;&gt;A23 -->
<g id="edge37" class="edge">
<title>A22&#45;&gt;A23</title>
<path fill="none" stroke="#646464" d="M131.9328,-2436.8751C158.3193,-2392.1551 229.4141,-2271.6633 260.7005,-2218.639"/>
<polygon fill="#646464" stroke="#646464" points="263.8197,-2220.2399 265.8871,-2209.8487 257.7909,-2216.6826 263.8197,-2220.2399"/>
<text text-anchor="middle" x="217.3285" y="-2319.8" font-family="Times,serif" font-size="14.00" fill="#000000">0.355</text>
</g>
<!-- A24 -->
<g id="node25" class="node">
<title>A24</title>
<ellipse fill="#fa8072" stroke="#000000" stroke-width="1.1106" cx="275.8285" cy="-2106" rx="27" ry="18"/>
<text text-anchor="middle" x="275.8285" y="-2102.3" font-family="Times,serif" font-size="14.00" fill="#000000">A24</text>
</g>
<!-- A23&#45;&gt;A24 -->
<g id="edge35" class="edge">
<title>A23&#45;&gt;A24</title>
<path fill="none" stroke="#000000" d="M275.8285,-2174.9735C275.8285,-2163.1918 275.8285,-2147.5607 275.8285,-2134.1581"/>
<polygon fill="#000000" stroke="#000000" points="279.3286,-2134.0033 275.8285,-2124.0034 272.3286,-2134.0034 279.3286,-2134.0033"/>
<text text-anchor="middle" x="291.3285" y="-2145.8" font-family="Times,serif" font-size="14.00" fill="#000000">1.000</text>
</g>
<!-- A24&#45;&gt;A12 -->
<g id="edge36" class="edge">
<title>A24&#45;&gt;A12</title>
<path fill="none" stroke="#060606" d="M257.6859,-2119.4071C250.0019,-2125.6867 241.3403,-2133.6243 234.8285,-2142 203.5961,-2182.1718 211.0601,-2201.6655 182.8285,-2244 154.6647,-2286.2326 142.9843,-2293.4478 108.8285,-2331 104.7704,-2335.4616 100.3493,-2340.1411 96.0579,-2344.5948"/>
<polygon fill="#060606" stroke="#060606" points="93.5126,-2342.1918 89.0451,-2351.7987 98.5285,-2347.0746 93.5126,-2342.1918"/>
<text text-anchor="middle" x="206.3285" y="-2232.8" font-family="Times,serif" font-size="14.00" fill="#000000">0.940</text>
</g>
<!-- A24&#45;&gt;A23 -->
<g id="edge42" class="edge">
<title>A24&#45;&gt;A23</title>
<path fill="none" stroke="#adadad" d="M257.2987,-2119.3442C246.1708,-2129.1234 235.1731,-2143.0701 240.8285,-2157 243.0971,-2162.5881 246.696,-2167.7851 250.7404,-2172.3944"/>
<polygon fill="#adadad" stroke="#adadad" points="248.2966,-2174.9009 257.8111,-2179.5618 253.2798,-2169.9849 248.2966,-2174.9009"/>
<text text-anchor="middle" x="256.3285" y="-2145.8" font-family="Times,serif" font-size="14.00" fill="#000000">0.060</text>
</g>
<!-- A25&#45;&gt;A8 -->
<g id="edge41" class="edge">
<title>A25&#45;&gt;A8</title>
<path fill="none" stroke="#bebebe" d="M121.5466,-210.1455C110.3125,-370.2044 28.4474,-1557.8904 3.8285,-2523 1.4415,-2616.5734 -6.7114,-2643.2375 19.8285,-2733 24.3964,-2748.4496 25.9417,-2752.562 34.8285,-2766 37.9268,-2770.6852 41.6316,-2775.3564 45.4215,-2779.7071"/>
<polygon fill="#bebebe" stroke="#bebebe" points="42.885,-2782.1197 52.2224,-2787.126 48.045,-2777.3895 42.885,-2782.1197"/>
<text text-anchor="middle" x="61.3285" y="-1493.3" font-family="Times,serif" font-size="14.00" fill="#000000">0.001</text>
</g>
<!-- A25&#45;&gt;A25 -->
<g id="edge40" class="edge">
<title>A25&#45;&gt;A25</title>
<path fill="none" stroke="#000000" d="M147.3609,-199.752C158.3363,-200.4902 167.8285,-197.9063 167.8285,-192 167.8285,-188.0317 163.5435,-185.5632 157.4028,-184.5944"/>
<polygon fill="#000000" stroke="#000000" points="157.4757,-181.0949 147.3609,-184.248 157.2343,-188.0908 157.4757,-181.0949"/>
<text text-anchor="middle" x="183.3285" y="-188.3" font-family="Times,serif" font-size="14.00" fill="#000000">0.993</text>
</g>
<!-- A39 -->
<g id="node40" class="node">
<title>A39</title>
<ellipse fill="#fa8072" stroke="#000000" stroke-width="1.0458" cx="136.8285" cy="-105" rx="27" ry="18"/>
<text text-anchor="middle" x="136.8285" y="-101.3" font-family="Times,serif" font-size="14.00" fill="#000000">A39</text>
</g>
<!-- A25&#45;&gt;A39 -->
<g id="edge75" class="edge">
<title>A25&#45;&gt;A39</title>
<path fill="none" stroke="#bdbdbd" d="M125.7293,-173.9735C127.6252,-162.1918 130.1405,-146.5607 132.2973,-133.1581"/>
<polygon fill="#bdbdbd" stroke="#bdbdbd" points="135.7981,-133.4324 133.9314,-123.0034 128.887,-132.3203 135.7981,-133.4324"/>
<text text-anchor="middle" x="145.3285" y="-144.8" font-family="Times,serif" font-size="14.00" fill="#000000">0.005</text>
</g>
<!-- A26&#45;&gt;A21 -->
<g id="edge45" class="edge">
<title>A26&#45;&gt;A21</title>
<path fill="none" stroke="#999999" d="M195.333,-348.8116C189.208,-336.4191 180.8274,-319.4631 173.8595,-305.3651"/>
<polygon fill="#999999" stroke="#999999" points="176.8748,-303.5667 169.3062,-296.1527 170.5995,-306.6683 176.8748,-303.5667"/>
<text text-anchor="middle" x="200.3285" y="-318.8" font-family="Times,serif" font-size="14.00" fill="#000000">0.132</text>
</g>
<!-- A26&#45;&gt;A26 -->
<g id="edge44" class="edge">
<title>A26&#45;&gt;A26</title>
<path fill="none" stroke="#0f0f0f" d="M228.3609,-373.752C239.3363,-374.4902 248.8285,-371.9063 248.8285,-366 248.8285,-362.0317 244.5435,-359.5632 238.4028,-358.5944"/>
<polygon fill="#0f0f0f" stroke="#0f0f0f" points="238.4757,-355.0949 228.3609,-358.248 238.2343,-362.0908 238.4757,-355.0949"/>
<text text-anchor="middle" x="264.3285" y="-362.3" font-family="Times,serif" font-size="14.00" fill="#000000">0.868</text>
</g>
<!-- A27&#45;&gt;A18 -->
<g id="edge47" class="edge">
<title>A27&#45;&gt;A18</title>
<path fill="none" stroke="#2c2c2c" d="M345.0502,-696.2463C338.9264,-672.4884 328.6454,-628.9424 324.8285,-591 324.1612,-584.3668 323.4445,-582.5214 324.8285,-576 326.6458,-567.4362 331.0111,-566.5638 332.8285,-558 336.1499,-542.3486 338.342,-537.02 332.8285,-522 324.3619,-498.9354 302.876,-481.0165 284.4458,-469.2261"/>
<polygon fill="#2c2c2c" stroke="#2c2c2c" points="286.0803,-466.1241 275.7142,-463.9346 282.4524,-472.1106 286.0803,-466.1241"/>
<text text-anchor="middle" x="340.3285" y="-579.8" font-family="Times,serif" font-size="14.00" fill="#000000">0.667</text>
</g>
<!-- A27&#45;&gt;A20 -->
<g id="edge48" class="edge">
<title>A27&#45;&gt;A20</title>
<path fill="none" stroke="#696969" d="M327.6579,-703.4748C309.1872,-694.4841 285.48,-682.3376 282.8285,-678 278.7639,-671.3507 277.3755,-663.2465 277.3038,-655.4732"/>
<polygon fill="#696969" stroke="#696969" points="280.8119,-655.4314 277.8944,-645.2463 273.8236,-655.0278 280.8119,-655.4314"/>
<text text-anchor="middle" x="298.3285" y="-666.8" font-family="Times,serif" font-size="14.00" fill="#000000">0.333</text>
</g>
<!-- A28&#45;&gt;A18 -->
<g id="edge50" class="edge">
<title>A28&#45;&gt;A18</title>
<path fill="none" stroke="#000000" d="M253.8285,-521.9735C253.8285,-510.1918 253.8285,-494.5607 253.8285,-481.1581"/>
<polygon fill="#000000" stroke="#000000" points="257.3286,-481.0033 253.8285,-471.0034 250.3286,-481.0034 257.3286,-481.0033"/>
<text text-anchor="middle" x="269.3285" y="-492.8" font-family="Times,serif" font-size="14.00" fill="#000000">1.000</text>
</g>
<!-- A29&#45;&gt;A29 -->
<g id="edge57" class="edge">
<title>A29&#45;&gt;A29</title>
<path fill="none" stroke="#b8b8b8" d="M251.3609,-1678.752C262.3363,-1679.4902 271.8285,-1676.9063 271.8285,-1671 271.8285,-1667.0317 267.5435,-1664.5632 261.4028,-1663.5944"/>
<polygon fill="#b8b8b8" stroke="#b8b8b8" points="261.4757,-1660.0949 251.3609,-1663.248 261.2343,-1667.0908 261.4757,-1660.0949"/>
<text text-anchor="middle" x="287.3285" y="-1667.3" font-family="Times,serif" font-size="14.00" fill="#000000">0.023</text>
</g>
<!-- A30 -->
<g id="node31" class="node">
<title>A30</title>
<ellipse fill="#fa8072" stroke="#000000" stroke-width="1.0495" cx="210.8285" cy="-1584" rx="27" ry="18"/>
<text text-anchor="middle" x="210.8285" y="-1580.3" font-family="Times,serif" font-size="14.00" fill="#000000">A30</text>
</g>
<!-- A29&#45;&gt;A30 -->
<g id="edge52" class="edge">
<title>A29&#45;&gt;A30</title>
<path fill="none" stroke="#020202" d="M222.6173,-1653.1007C221.3241,-1647.3377 219.9481,-1640.9132 218.8285,-1635 217.4232,-1627.5782 216.0761,-1619.5155 214.9012,-1612.0383"/>
<polygon fill="#020202" stroke="#020202" points="218.3357,-1611.3429 213.3668,-1601.9855 211.4158,-1612.3992 218.3357,-1611.3429"/>
<text text-anchor="middle" x="234.3285" y="-1623.8" font-family="Times,serif" font-size="14.00" fill="#000000">0.977</text>
</g>
<!-- A30&#45;&gt;A14 -->
<g id="edge53" class="edge">
<title>A30&#45;&gt;A14</title>
<path fill="none" stroke="#bebebe" d="M204.2266,-1566.232C202.2716,-1560.476 200.2706,-1554.0225 198.8285,-1548 180.619,-1471.958 178.6222,-1451.977 172.8285,-1374 167.5089,-1302.4043 185.4365,-1218.8379 196.2347,-1176.543"/>
<polygon fill="#bebebe" stroke="#bebebe" points="199.6617,-1177.2721 198.8079,-1166.7117 192.8898,-1175.4996 199.6617,-1177.2721"/>
<text text-anchor="middle" x="188.3285" y="-1362.8" font-family="Times,serif" font-size="14.00" fill="#000000">0.002</text>
</g>
<!-- A31 -->
<g id="node32" class="node">
<title>A31</title>
<ellipse fill="#fa8072" stroke="#000000" stroke-width="1.0494" cx="252.8285" cy="-1497" rx="27" ry="18"/>
<text text-anchor="middle" x="252.8285" y="-1493.3" font-family="Times,serif" font-size="14.00" fill="#000000">A31</text>
</g>
<!-- A30&#45;&gt;A31 -->
<g id="edge55" class="edge">
<title>A30&#45;&gt;A31</title>
<path fill="none" stroke="#000000" d="M205.094,-1566.1647C202.8492,-1555.9697 201.8492,-1543.2197 206.8285,-1533 210.4513,-1525.5643 216.435,-1519.2124 222.9075,-1514.0085"/>
<polygon fill="#000000" stroke="#000000" points="225.1446,-1516.711 231.2264,-1508.0356 221.062,-1511.0248 225.1446,-1516.711"/>
<text text-anchor="middle" x="222.3285" y="-1536.8" font-family="Times,serif" font-size="14.00" fill="#000000">0.998</text>
</g>
<!-- A31&#45;&gt;A14 -->
<g id="edge56" class="edge">
<title>A31&#45;&gt;A14</title>
<path fill="none" stroke="#bababa" d="M229.6872,-1487.5925C218.5146,-1481.7305 206.1799,-1472.9923 199.8285,-1461 192.7132,-1447.5656 205.3357,-1442.7957 208.8285,-1428 212.5045,-1412.428 208.993,-1407.9992 208.8285,-1392 208.0305,-1314.4294 205.8,-1222.9523 204.6061,-1177.5463"/>
<polygon fill="#bababa" stroke="#bababa" points="208.098,-1177.1914 204.3332,-1167.288 201.1004,-1177.3776 208.098,-1177.1914"/>
<text text-anchor="middle" x="223.3285" y="-1319.3" font-family="Times,serif" font-size="14.00" fill="#000000">0.016</text>
</g>
<!-- A31&#45;&gt;A29 -->
<g id="edge64" class="edge">
<title>A31&#45;&gt;A29</title>
<path fill="none" stroke="#868686" d="M255.5096,-1515.3542C258.7611,-1542.2707 262.3749,-1593.7298 249.8285,-1635 248.6487,-1638.8806 246.9234,-1642.7461 244.9395,-1646.4259"/>
<polygon fill="#868686" stroke="#868686" points="241.8704,-1644.7359 239.6385,-1655.093 247.842,-1648.3883 241.8704,-1644.7359"/>
<text text-anchor="middle" x="273.3285" y="-1580.3" font-family="Times,serif" font-size="14.00" fill="#000000">0.208</text>
</g>
<!-- A32 -->
<g id="node33" class="node">
<title>A32</title>
<ellipse fill="#fa8072" stroke="#000000" stroke-width="1.0201" cx="288.8285" cy="-1410" rx="27" ry="18"/>
<text text-anchor="middle" x="288.8285" y="-1406.3" font-family="Times,serif" font-size="14.00" fill="#000000">A32</text>
</g>
<!-- A31&#45;&gt;A32 -->
<g id="edge58" class="edge">
<title>A31&#45;&gt;A32</title>
<path fill="none" stroke="#5a5a5a" d="M231.3146,-1486.1009C214.993,-1476.3087 196.918,-1461.1744 206.8285,-1446 206.8285,-1446 233.7842,-1434.1658 256.7857,-1424.0676"/>
<polygon fill="#5a5a5a" stroke="#5a5a5a" points="258.2374,-1427.2527 265.9869,-1420.028 255.4234,-1420.8432 258.2374,-1427.2527"/>
<text text-anchor="middle" x="222.3285" y="-1449.8" font-family="Times,serif" font-size="14.00" fill="#000000">0.405</text>
</g>
<!-- A33 -->
<g id="node34" class="node">
<title>A33</title>
<ellipse fill="#fa8072" stroke="#000000" stroke-width="1.0347" cx="406.8285" cy="-1323" rx="27" ry="18"/>
<text text-anchor="middle" x="406.8285" y="-1319.3" font-family="Times,serif" font-size="14.00" fill="#000000">A33</text>
</g>
<!-- A31&#45;&gt;A33 -->
<g id="edge65" class="edge">
<title>A31&#45;&gt;A33</title>
<path fill="none" stroke="#616161" d="M270.2194,-1482.8943C285.7372,-1469.7469 308.4694,-1449.054 324.8285,-1428 346.4419,-1400.1837 341.2941,-1386.0756 363.8285,-1359 368.6242,-1353.2378 374.4252,-1347.685 380.1929,-1342.7369"/>
<polygon fill="#616161" stroke="#616161" points="382.4143,-1345.4416 387.9396,-1336.4016 377.9829,-1340.0229 382.4143,-1345.4416"/>
<text text-anchor="middle" x="359.3285" y="-1406.3" font-family="Times,serif" font-size="14.00" fill="#000000">0.370</text>
</g>
<!-- A32&#45;&gt;A14 -->
<g id="edge59" class="edge">
<title>A32&#45;&gt;A14</title>
<path fill="none" stroke="#bdbdbd" d="M280.1296,-1392.7522C277.4663,-1386.9148 274.7387,-1380.2819 272.8285,-1374 263.7724,-1344.2195 268.3245,-1335.2109 260.8285,-1305 247.3234,-1250.5711 243.0942,-1236.8908 221.8285,-1185 220.4895,-1181.7327 218.9778,-1178.3527 217.4137,-1175.0317"/>
<polygon fill="#bdbdbd" stroke="#bdbdbd" points="220.5149,-1173.4063 212.9671,-1165.9712 214.2309,-1176.4904 220.5149,-1173.4063"/>
<text text-anchor="middle" x="271.3285" y="-1275.8" font-family="Times,serif" font-size="14.00" fill="#000000">0.006</text>
</g>
<!-- A32&#45;&gt;A29 -->
<g id="edge67" class="edge">
<title>A32&#45;&gt;A29</title>
<path fill="none" stroke="#9b9b9b" d="M290.869,-1428.1131C295.2788,-1469.6218 304.4036,-1570.4668 292.8285,-1602 285.4542,-1622.0891 268.734,-1639.4635 253.9689,-1651.7526"/>
<polygon fill="#9b9b9b" stroke="#9b9b9b" points="251.6992,-1649.0855 246.039,-1658.0417 256.0489,-1654.5701 251.6992,-1649.0855"/>
<text text-anchor="middle" x="313.3285" y="-1536.8" font-family="Times,serif" font-size="14.00" fill="#000000">0.126</text>
</g>
<!-- A32&#45;&gt;A33 -->
<g id="edge60" class="edge">
<title>A32&#45;&gt;A33</title>
<path fill="none" stroke="#161616" d="M284.5589,-1392.0589C283.1084,-1381.3183 283.4083,-1368.0415 290.8285,-1359 312.5754,-1332.5013 333.3389,-1351.9334 365.8285,-1341 368.9229,-1339.9586 372.1056,-1338.7745 375.2643,-1337.5224"/>
<polygon fill="#161616" stroke="#161616" points="376.6801,-1340.7241 384.5559,-1333.6373 373.9797,-1334.2659 376.6801,-1340.7241"/>
<text text-anchor="middle" x="306.3285" y="-1362.8" font-family="Times,serif" font-size="14.00" fill="#000000">0.817</text>
</g>
<!-- A34 -->
<g id="node35" class="node">
<title>A34</title>
<ellipse fill="#fa8072" stroke="#000000" stroke-width="1.0166" cx="377.8285" cy="-1236" rx="27" ry="18"/>
<text text-anchor="middle" x="377.8285" y="-1232.3" font-family="Times,serif" font-size="14.00" fill="#000000">A34</text>
</g>
<!-- A32&#45;&gt;A34 -->
<g id="edge68" class="edge">
<title>A32&#45;&gt;A34</title>
<path fill="none" stroke="#b0b0b0" d="M280.918,-1392.429C277.5311,-1382.322 275.2811,-1369.572 279.8285,-1359 284.4247,-1348.3143 292.3917,-1350.689 298.8285,-1341 316.9628,-1313.7031 304.5486,-1297.743 324.8285,-1272 330.8944,-1264.2999 339.0646,-1257.6352 347.1715,-1252.2054"/>
<polygon fill="#b0b0b0" stroke="#b0b0b0" points="349.2018,-1255.0643 355.8409,-1246.8077 345.5019,-1249.122 349.2018,-1255.0643"/>
<text text-anchor="middle" x="326.3285" y="-1319.3" font-family="Times,serif" font-size="14.00" fill="#000000">0.051</text>
</g>
<!-- A33&#45;&gt;A14 -->
<g id="edge66" class="edge">
<title>A33&#45;&gt;A14</title>
<path fill="none" stroke="#a3a3a3" d="M381.7575,-1316.2487C364.3304,-1310.6032 341.3559,-1301.1645 324.8285,-1287 284.0118,-1252.0189 297.7639,-1223.0865 259.8285,-1185 252.3042,-1177.4458 242.9309,-1170.6612 234.0182,-1165.0725"/>
<polygon fill="#a3a3a3" stroke="#a3a3a3" points="235.7258,-1162.0157 225.3447,-1159.8982 232.1395,-1168.0272 235.7258,-1162.0157"/>
<text text-anchor="middle" x="313.3285" y="-1232.3" font-family="Times,serif" font-size="14.00" fill="#000000">0.096</text>
</g>
<!-- A33&#45;&gt;A29 -->
<g id="edge61" class="edge">
<title>A33&#45;&gt;A29</title>
<path fill="none" stroke="#505050" d="M404.7605,-1341.104C401.6713,-1362.8772 394.4496,-1399.9888 378.8285,-1428 373.4689,-1437.6105 367.2666,-1436.4338 361.8285,-1446 338.5366,-1486.9722 348.8836,-1503.689 332.8285,-1548 323.8816,-1572.6927 320.4595,-1578.4523 308.8285,-1602 301.4298,-1616.979 302.5645,-1623.1098 290.8285,-1635 281.9626,-1643.9823 270.3826,-1651.4012 259.5136,-1657.1226"/>
<polygon fill="#505050" stroke="#505050" points="257.6454,-1654.1417 250.2312,-1661.7101 260.7469,-1660.4171 257.6454,-1654.1417"/>
<text text-anchor="middle" x="363.3285" y="-1493.3" font-family="Times,serif" font-size="14.00" fill="#000000">0.455</text>
</g>
<!-- A33&#45;&gt;A34 -->
<g id="edge62" class="edge">
<title>A33&#45;&gt;A34</title>
<path fill="none" stroke="#515151" d="M384.1486,-1312.8231C362.6416,-1303.0647 333.3765,-1289.4602 331.8285,-1287 323.9626,-1274.4993 334.478,-1262.1557 347.4284,-1252.7439"/>
<polygon fill="#515151" stroke="#515151" points="349.7009,-1255.4378 356.1216,-1247.0101 345.8468,-1249.5943 349.7009,-1255.4378"/>
<text text-anchor="middle" x="347.3285" y="-1275.8" font-family="Times,serif" font-size="14.00" fill="#000000">0.449</text>
</g>
<!-- A34&#45;&gt;A14 -->
<g id="edge63" class="edge">
<title>A34&#45;&gt;A14</title>
<path fill="none" stroke="#9b9b9b" d="M360.1686,-1222.3198C345.2351,-1211.21 322.9555,-1195.6865 301.8285,-1185 280.7529,-1174.3395 273.9973,-1175.1467 251.8285,-1167 247.166,-1165.2866 242.255,-1163.4648 237.4255,-1161.6632"/>
<polygon fill="#9b9b9b" stroke="#9b9b9b" points="238.3247,-1158.2627 227.7323,-1158.0349 235.8707,-1164.8185 238.3247,-1158.2627"/>
<text text-anchor="middle" x="340.3285" y="-1188.8" font-family="Times,serif" font-size="14.00" fill="#000000">0.124</text>
</g>
<!-- A34&#45;&gt;A29 -->
<g id="edge69" class="edge">
<title>A34&#45;&gt;A29</title>
<path fill="none" stroke="#0e0e0e" d="M383.1588,-1253.9344C387.12,-1264.6724 393.4744,-1277.9489 402.8285,-1287 416.8384,-1300.5562 432.2433,-1288.6292 442.8285,-1305 451.516,-1318.436 446.2325,-1325.3663 442.8285,-1341 431.9119,-1391.137 410.0158,-1396.9874 394.8285,-1446 385.6154,-1475.7323 393.6613,-1485.8189 382.8285,-1515 364.9308,-1563.2121 324.9069,-1622.1271 309.8285,-1635 295.979,-1646.8237 277.6505,-1655.3216 261.7404,-1661.081"/>
<polygon fill="#0e0e0e" stroke="#0e0e0e" points="260.5515,-1657.7883 252.2083,-1664.3184 262.8027,-1664.4165 260.5515,-1657.7883"/>
<text text-anchor="middle" x="410.3285" y="-1449.8" font-family="Times,serif" font-size="14.00" fill="#000000">0.876</text>
</g>
<!-- A36 -->
<g id="node37" class="node">
<title>A36</title>
<ellipse fill="#fa8072" stroke="#000000" stroke-width="1.0006" cx="117.8285" cy="-2106" rx="27" ry="18"/>
<text text-anchor="middle" x="117.8285" y="-2102.3" font-family="Times,serif" font-size="14.00" fill="#000000">A36</text>
</g>
<!-- A35&#45;&gt;A36 -->
<g id="edge71" class="edge">
<title>A35&#45;&gt;A36</title>
<path fill="none" stroke="#000000" d="M117.8285,-2174.9735C117.8285,-2163.1918 117.8285,-2147.5607 117.8285,-2134.1581"/>
<polygon fill="#000000" stroke="#000000" points="121.3286,-2134.0033 117.8285,-2124.0034 114.3286,-2134.0034 121.3286,-2134.0033"/>
<text text-anchor="middle" x="133.3285" y="-2145.8" font-family="Times,serif" font-size="14.00" fill="#000000">1.000</text>
</g>
<!-- A37 -->
<g id="node38" class="node">
<title>A37</title>
<ellipse fill="#fa8072" stroke="#000000" stroke-width="1.0006" cx="117.8285" cy="-2019" rx="27" ry="18"/>
<text text-anchor="middle" x="117.8285" y="-2015.3" font-family="Times,serif" font-size="14.00" fill="#000000">A37</text>
</g>
<!-- A36&#45;&gt;A37 -->
<g id="edge72" class="edge">
<title>A36&#45;&gt;A37</title>
<path fill="none" stroke="#000000" d="M117.8285,-2087.9735C117.8285,-2076.1918 117.8285,-2060.5607 117.8285,-2047.1581"/>
<polygon fill="#000000" stroke="#000000" points="121.3286,-2047.0033 117.8285,-2037.0034 114.3286,-2047.0034 121.3286,-2047.0033"/>
<text text-anchor="middle" x="133.3285" y="-2058.8" font-family="Times,serif" font-size="14.00" fill="#000000">1.000</text>
</g>
<!-- A37&#45;&gt;A29 -->
<g id="edge83" class="edge">
<title>A37&#45;&gt;A29</title>
<path fill="none" stroke="#888888" d="M113.6808,-2001.0301C106.4915,-1966.4436 94.1794,-1888.5938 112.8285,-1827 129.4438,-1772.1231 174.6942,-1720.981 202.9333,-1693.0512"/>
<polygon fill="#888888" stroke="#888888" points="205.6644,-1695.2783 210.4092,-1685.8053 200.7926,-1690.2519 205.6644,-1695.2783"/>
<text text-anchor="middle" x="128.3285" y="-1841.3" font-family="Times,serif" font-size="14.00" fill="#000000">0.200</text>
</g>
<!-- A38 -->
<g id="node39" class="node">
<title>A38</title>
<ellipse fill="#fa8072" stroke="#000000" stroke-width="1.0005" cx="150.8285" cy="-1932" rx="27" ry="18"/>
<text text-anchor="middle" x="150.8285" y="-1928.3" font-family="Times,serif" font-size="14.00" fill="#000000">A38</text>
</g>
<!-- A37&#45;&gt;A38 -->
<g id="edge73" class="edge">
<title>A37&#45;&gt;A38</title>
<path fill="none" stroke="#181818" d="M116.1829,-2000.9417C115.926,-1990.9088 116.717,-1978.3918 120.8285,-1968 122.6767,-1963.3286 125.3788,-1958.8161 128.4153,-1954.6578"/>
<polygon fill="#181818" stroke="#181818" points="131.3199,-1956.6352 134.9513,-1946.6822 125.9057,-1952.1983 131.3199,-1956.6352"/>
<text text-anchor="middle" x="136.3285" y="-1971.8" font-family="Times,serif" font-size="14.00" fill="#000000">0.800</text>
</g>
<!-- A38&#45;&gt;A29 -->
<g id="edge74" class="edge">
<title>A38&#45;&gt;A29</title>
<path fill="none" stroke="#1f1f1f" d="M146.3033,-1914.0132C144.446,-1904.2245 143.0926,-1891.9177 144.8285,-1881 155.1791,-1815.9005 165.2732,-1800.762 190.8285,-1740 196.9646,-1725.4103 205.0228,-1709.7253 211.9594,-1697.0022"/>
<polygon fill="#1f1f1f" stroke="#1f1f1f" points="215.2082,-1698.3604 216.9948,-1687.9173 209.0857,-1694.967 215.2082,-1698.3604"/>
<text text-anchor="middle" x="182.3285" y="-1797.8" font-family="Times,serif" font-size="14.00" fill="#000000">0.750</text>
</g>
<!-- A41 -->
<g id="node42" class="node">
<title>A41</title>
<ellipse fill="#fa8072" stroke="#000000" stroke-width="1.0001" cx="226.8285" cy="-1845" rx="27" ry="18"/>
<text text-anchor="middle" x="226.8285" y="-1841.3" font-family="Times,serif" font-size="14.00" fill="#000000">A41</text>
</g>
<!-- A38&#45;&gt;A41 -->
<g id="edge84" class="edge">
<title>A38&#45;&gt;A41</title>
<path fill="none" stroke="#7c7c7c" d="M148.0944,-1914.0572C147.4481,-1903.5783 148.3789,-1890.5764 154.8285,-1881 159.723,-1873.7326 177.0963,-1864.9476 193.5499,-1857.8753"/>
<polygon fill="#7c7c7c" stroke="#7c7c7c" points="195.14,-1861.0047 203.0299,-1853.9335 192.4524,-1854.5411 195.14,-1861.0047"/>
<text text-anchor="middle" x="170.3285" y="-1884.8" font-family="Times,serif" font-size="14.00" fill="#000000">0.250</text>
</g>
<!-- A39&#45;&gt;A8 -->
<g id="edge80" class="edge">
<title>A39&#45;&gt;A8</title>
<path fill="none" stroke="#bcbcbc" d="M159.2948,-115.3261C172.117,-121.7682 188.117,-130.7682 200.8285,-141 415.691,-313.9483 359.714,-305.2966 384.8285,-348 595.6307,-706.4382 506.2834,-856.9542 531.8285,-1272 565.4595,-1818.4242 471.3403,-1969.6067 253.8285,-2472 196.8479,-2603.6097 213.1624,-2656.2624 120.8285,-2766 114.5174,-2773.5006 106.2709,-2780.1032 98.1693,-2785.5372"/>
<polygon fill="#bcbcbc" stroke="#bcbcbc" points="96.1394,-2782.679 89.5335,-2790.9623 99.8631,-2788.6065 96.1394,-2782.679"/>
<text text-anchor="middle" x="553.3285" y="-1449.8" font-family="Times,serif" font-size="14.00" fill="#000000">0.007</text>
</g>
<!-- A39&#45;&gt;A25 -->
<g id="edge76" class="edge">
<title>A39&#45;&gt;A25</title>
<path fill="none" stroke="#7e7e7e" d="M153.3015,-119.8857C162.3075,-129.9061 170.5686,-143.5196 164.8285,-156 161.8087,-162.5656 156.9353,-168.3819 151.5588,-173.3221"/>
<polygon fill="#7e7e7e" stroke="#7e7e7e" points="149.012,-170.883 143.4792,-179.9184 153.4389,-176.3055 149.012,-170.883"/>
<text text-anchor="middle" x="181.3285" y="-144.8" font-family="Times,serif" font-size="14.00" fill="#000000">0.240</text>
</g>
<!-- A39&#45;&gt;A39 -->
<g id="edge77" class="edge">
<title>A39&#45;&gt;A39</title>
<path fill="none" stroke="#282828" d="M161.3609,-112.752C172.3363,-113.4902 181.8285,-110.9063 181.8285,-105 181.8285,-101.0317 177.5435,-98.5632 171.4028,-97.5944"/>
<polygon fill="#282828" stroke="#282828" points="171.4757,-94.0949 161.3609,-97.248 171.2343,-101.0908 171.4757,-94.0949"/>
<text text-anchor="middle" x="197.3285" y="-101.3" font-family="Times,serif" font-size="14.00" fill="#000000">0.690</text>
</g>
<!-- A40 -->
<g id="node41" class="node">
<title>A40</title>
<ellipse fill="#fa8072" stroke="#000000" stroke-width="1.0028" cx="132.8285" cy="-18" rx="27" ry="18"/>
<text text-anchor="middle" x="132.8285" y="-14.3" font-family="Times,serif" font-size="14.00" fill="#000000">A40</text>
</g>
<!-- A39&#45;&gt;A40 -->
<g id="edge78" class="edge">
<title>A39&#45;&gt;A40</title>
<path fill="none" stroke="#adadad" d="M125.3857,-88.5388C121.9289,-82.6481 118.586,-75.7827 116.8285,-69 114.7335,-60.9153 116.0891,-52.2118 118.728,-44.3237"/>
<polygon fill="#adadad" stroke="#adadad" points="122.0459,-45.457 122.5938,-34.8763 115.5673,-42.806 122.0459,-45.457"/>
<text text-anchor="middle" x="132.3285" y="-57.8" font-family="Times,serif" font-size="14.00" fill="#000000">0.060</text>
</g>
<!-- END -->
<g id="node44" class="node">
<title>END</title>
<ellipse fill="#ffffff" stroke="#000000" stroke-width="1.2501" cx="214.8285" cy="-18" rx="28.6953" ry="18"/>
<text text-anchor="middle" x="214.8285" y="-14.3" font-family="Times,serif" font-size="14.00" fill="#000000">END</text>
</g>
<!-- A39&#45;&gt;END -->
<g id="edge87" class="edge">
<title>A39&#45;&gt;END</title>
<path fill="none" stroke="#bebebe" d="M155.987,-92.316C164.7694,-85.9488 174.9526,-77.738 182.8285,-69 189.5096,-61.5875 195.658,-52.6109 200.7418,-44.2677"/>
<polygon fill="#bebebe" stroke="#bebebe" points="203.8014,-45.9686 205.8152,-35.5669 197.7544,-42.4425 203.8014,-45.9686"/>
<text text-anchor="middle" x="209.3285" y="-57.8" font-family="Times,serif" font-size="14.00" fill="#000000">0.003</text>
</g>
<!-- A40&#45;&gt;A25 -->
<g id="edge81" class="edge">
<title>A40&#45;&gt;A25</title>
<path fill="none" stroke="#909090" d="M156.0257,-27.7689C162.7103,-30.508 170.0331,-33.4361 176.8285,-36 199.7105,-44.6333 214.6427,-34.078 228.8285,-54 232.6954,-59.4306 229.2579,-62.3472 228.8285,-69 226.2121,-109.5355 231.4139,-129.2697 200.8285,-156 188.328,-166.9248 171.9514,-175.1554 157.4327,-180.9692"/>
<polygon fill="#909090" stroke="#909090" points="155.8764,-177.8151 147.7487,-184.6115 158.3407,-184.367 155.8764,-177.8151"/>
<text text-anchor="middle" x="243.3285" y="-101.3" font-family="Times,serif" font-size="14.00" fill="#000000">0.167</text>
</g>
<!-- A40&#45;&gt;A39 -->
<g id="edge79" class="edge">
<title>A40&#45;&gt;A39</title>
<path fill="none" stroke="#141414" d="M141.5885,-35.1401C144.1256,-40.9703 146.5537,-47.6262 147.8285,-54 149.3672,-61.6939 148.6051,-70.0204 146.9231,-77.6705"/>
<polygon fill="#141414" stroke="#141414" points="143.4803,-76.989 144.1889,-87.5601 150.2272,-78.8544 143.4803,-76.989"/>
<text text-anchor="middle" x="163.3285" y="-57.8" font-family="Times,serif" font-size="14.00" fill="#000000">0.833</text>
</g>
<!-- A42 -->
<g id="node43" class="node">
<title>A42</title>
<ellipse fill="#fa8072" stroke="#000000" stroke-width="1.0001" cx="226.8285" cy="-1758" rx="27" ry="18"/>
<text text-anchor="middle" x="226.8285" y="-1754.3" font-family="Times,serif" font-size="14.00" fill="#000000">A42</text>
</g>
<!-- A41&#45;&gt;A42 -->
<g id="edge85" class="edge">
<title>A41&#45;&gt;A42</title>
<path fill="none" stroke="#000000" d="M226.8285,-1826.9735C226.8285,-1815.1918 226.8285,-1799.5607 226.8285,-1786.1581"/>
<polygon fill="#000000" stroke="#000000" points="230.3286,-1786.0033 226.8285,-1776.0034 223.3286,-1786.0034 230.3286,-1786.0033"/>
<text text-anchor="middle" x="242.3285" y="-1797.8" font-family="Times,serif" font-size="14.00" fill="#000000">1.000</text>
</g>
<!-- A42&#45;&gt;A29 -->
<g id="edge86" class="edge">
<title>A42&#45;&gt;A29</title>
<path fill="none" stroke="#000000" d="M226.8285,-1739.9735C226.8285,-1728.1918 226.8285,-1712.5607 226.8285,-1699.1581"/>
<polygon fill="#000000" stroke="#000000" points="230.3286,-1699.0033 226.8285,-1689.0034 223.3286,-1699.0034 230.3286,-1699.0033"/>
<text text-anchor="middle" x="242.3285" y="-1710.8" font-family="Times,serif" font-size="14.00" fill="#000000">1.000</text>
</g>
</g>
</svg>
