<?xml version="1.0" encoding="UTF-8" standalone="no"?>
<!DOCTYPE svg PUBLIC "-//W3C//DTD SVG 1.1//EN"
 "http://www.w3.org/Graphics/SVG/1.1/DTD/svg11.dtd">
<!-- Generated by graphviz version 2.40.1 (20161225.0304)
 -->
<!-- Title: G Pages: 1 -->
<svg width="4928pt" height="443pt"
 viewBox="0.00 0.00 4927.89 443.02" xmlns="http://www.w3.org/2000/svg" xmlns:xlink="http://www.w3.org/1999/xlink">
<g id="graph0" class="graph" transform="scale(1 1) rotate(0) translate(4 439.0247)">
<title>G</title>
<polygon fill="#ffffff" stroke="transparent" points="-4,4 -4,-439.0247 4923.8881,-439.0247 4923.8881,4 -4,4"/>
<!-- START -->
<g id="node1" class="node">
<title>START</title>
<ellipse fill="#ffffff" stroke="#000000" stroke-width="1.0001" cx="38.3466" cy="-58.6546" rx="38.1938" ry="18"/>
<text text-anchor="middle" x="38.3466" y="-54.9546" font-family="Times,serif" font-size="14.00" fill="#000000">START</text>
</g>
<!-- A1 -->
<g id="node2" class="node">
<title>A1</title>
<ellipse fill="#fa8072" stroke="#000000" stroke-width="1.0001" cx="170.6932" cy="-58.6546" rx="27" ry="18"/>
<text text-anchor="middle" x="170.6932" y="-54.9546" font-family="Times,serif" font-size="14.00" fill="#000000">A1</text>
</g>
<!-- START&#45;&gt;A1 -->
<g id="edge1" class="edge">
<title>START&#45;&gt;A1</title>
<path fill="none" stroke="#000000" d="M76.9825,-58.6546C94.6738,-58.6546 115.5612,-58.6546 133.1212,-58.6546"/>
<polygon fill="#000000" stroke="#000000" points="133.5666,-62.1547 143.5665,-58.6546 133.5665,-55.1547 133.5666,-62.1547"/>
<text text-anchor="middle" x="110.1932" y="-62.4546" font-family="Times,serif" font-size="14.00" fill="#000000">1.000</text>
</g>
<!-- A2 -->
<g id="node3" class="node">
<title>A2</title>
<ellipse fill="#fa8072" stroke="#000000" stroke-width="1.0001" cx="291.6932" cy="-58.6546" rx="27" ry="18"/>
<text text-anchor="middle" x="291.6932" y="-54.9546" font-family="Times,serif" font-size="14.00" fill="#000000">A2</text>
</g>
<!-- A1&#45;&gt;A2 -->
<g id="edge2" class="edge">
<title>A1&#45;&gt;A2</title>
<path fill="none" stroke="#000000" d="M197.848,-58.6546C214.5841,-58.6546 236.2712,-58.6546 254.5806,-58.6546"/>
<polygon fill="#000000" stroke="#000000" points="254.6291,-62.1547 264.6291,-58.6546 254.629,-55.1547 254.6291,-62.1547"/>
<text text-anchor="middle" x="231.1932" y="-62.4546" font-family="Times,serif" font-size="14.00" fill="#000000">1.000</text>
</g>
<!-- A3 -->
<g id="node4" class="node">
<title>A3</title>
<ellipse fill="#fa8072" stroke="#000000" stroke-width="1.0001" cx="412.6932" cy="-58.6546" rx="27" ry="18"/>
<text text-anchor="middle" x="412.6932" y="-54.9546" font-family="Times,serif" font-size="14.00" fill="#000000">A3</text>
</g>
<!-- A2&#45;&gt;A3 -->
<g id="edge3" class="edge">
<title>A2&#45;&gt;A3</title>
<path fill="none" stroke="#000000" d="M318.848,-58.6546C335.5841,-58.6546 357.2712,-58.6546 375.5806,-58.6546"/>
<polygon fill="#000000" stroke="#000000" points="375.6291,-62.1547 385.6291,-58.6546 375.629,-55.1547 375.6291,-62.1547"/>
<text text-anchor="middle" x="352.1932" y="-62.4546" font-family="Times,serif" font-size="14.00" fill="#000000">1.000</text>
</g>
<!-- A4 -->
<g id="node5" class="node">
<title>A4</title>
<ellipse fill="#fa8072" stroke="#000000" stroke-width="1.0001" cx="533.6932" cy="-58.6546" rx="27" ry="18"/>
<text text-anchor="middle" x="533.6932" y="-54.9546" font-family="Times,serif" font-size="14.00" fill="#000000">A4</text>
</g>
<!-- A3&#45;&gt;A4 -->
<g id="edge4" class="edge">
<title>A3&#45;&gt;A4</title>
<path fill="none" stroke="#000000" d="M439.848,-58.6546C456.5841,-58.6546 478.2712,-58.6546 496.5806,-58.6546"/>
<polygon fill="#000000" stroke="#000000" points="496.6291,-62.1547 506.6291,-58.6546 496.629,-55.1547 496.6291,-62.1547"/>
<text text-anchor="middle" x="473.1932" y="-62.4546" font-family="Times,serif" font-size="14.00" fill="#000000">1.000</text>
</g>
<!-- A5 -->
<g id="node6" class="node">
<title>A5</title>
<ellipse fill="#fa8072" stroke="#000000" stroke-width="1.0001" cx="654.6932" cy="-58.6546" rx="27" ry="18"/>
<text text-anchor="middle" x="654.6932" y="-54.9546" font-family="Times,serif" font-size="14.00" fill="#000000">A5</text>
</g>
<!-- A4&#45;&gt;A5 -->
<g id="edge5" class="edge">
<title>A4&#45;&gt;A5</title>
<path fill="none" stroke="#000000" d="M560.848,-58.6546C577.5841,-58.6546 599.2712,-58.6546 617.5806,-58.6546"/>
<polygon fill="#000000" stroke="#000000" points="617.6291,-62.1547 627.6291,-58.6546 617.629,-55.1547 617.6291,-62.1547"/>
<text text-anchor="middle" x="594.1932" y="-62.4546" font-family="Times,serif" font-size="14.00" fill="#000000">1.000</text>
</g>
<!-- A6 -->
<g id="node7" class="node">
<title>A6</title>
<ellipse fill="#fa8072" stroke="#000000" stroke-width="1.2644" cx="775.6932" cy="-58.6546" rx="27" ry="18"/>
<text text-anchor="middle" x="775.6932" y="-54.9546" font-family="Times,serif" font-size="14.00" fill="#000000">A6</text>
</g>
<!-- A5&#45;&gt;A6 -->
<g id="edge6" class="edge">
<title>A5&#45;&gt;A6</title>
<path fill="none" stroke="#000000" d="M681.848,-58.6546C698.5841,-58.6546 720.2712,-58.6546 738.5806,-58.6546"/>
<polygon fill="#000000" stroke="#000000" points="738.6291,-62.1547 748.6291,-58.6546 738.629,-55.1547 738.6291,-62.1547"/>
<text text-anchor="middle" x="715.1932" y="-62.4546" font-family="Times,serif" font-size="14.00" fill="#000000">1.000</text>
</g>
<!-- A7 -->
<g id="node8" class="node">
<title>A7</title>
<ellipse fill="#fa8072" stroke="#000000" stroke-width="1.0115" cx="896.6932" cy="-58.6546" rx="27" ry="18"/>
<text text-anchor="middle" x="896.6932" y="-54.9546" font-family="Times,serif" font-size="14.00" fill="#000000">A7</text>
</g>
<!-- A6&#45;&gt;A7 -->
<g id="edge7" class="edge">
<title>A6&#45;&gt;A7</title>
<path fill="none" stroke="#000000" d="M802.848,-58.6546C819.5841,-58.6546 841.2712,-58.6546 859.5806,-58.6546"/>
<polygon fill="#000000" stroke="#000000" points="859.6291,-62.1547 869.6291,-58.6546 859.629,-55.1547 859.6291,-62.1547"/>
<text text-anchor="middle" x="836.1932" y="-62.4546" font-family="Times,serif" font-size="14.00" fill="#000000">1.000</text>
</g>
<!-- A7&#45;&gt;A6 -->
<g id="edge8" class="edge">
<title>A7&#45;&gt;A6</title>
<path fill="none" stroke="#010101" d="M875.2821,-47.5594C867.9954,-44.3458 859.6724,-41.27 851.6932,-39.6546 838.1894,-36.9206 834.197,-36.9206 820.6932,-39.6546 815.9555,-40.6138 811.0967,-42.0877 806.4055,-43.7997"/>
<polygon fill="#010101" stroke="#010101" points="805.0638,-40.5669 797.1043,-47.5594 807.6872,-47.0567 805.0638,-40.5669"/>
<text text-anchor="middle" x="836.1932" y="-43.4546" font-family="Times,serif" font-size="14.00" fill="#000000">0.990</text>
</g>
<!-- A8 -->
<g id="node9" class="node">
<title>A8</title>
<ellipse fill="#fa8072" stroke="#000000" stroke-width="1.2572" cx="1017.6932" cy="-58.6546" rx="27" ry="18"/>
<text text-anchor="middle" x="1017.6932" y="-54.9546" font-family="Times,serif" font-size="14.00" fill="#000000">A8</text>
</g>
<!-- A7&#45;&gt;A8 -->
<g id="edge9" class="edge">
<title>A7&#45;&gt;A8</title>
<path fill="none" stroke="#bcbcbc" d="M923.848,-58.6546C940.5841,-58.6546 962.2712,-58.6546 980.5806,-58.6546"/>
<polygon fill="#bcbcbc" stroke="#bcbcbc" points="980.6291,-62.1547 990.6291,-58.6546 980.629,-55.1547 980.6291,-62.1547"/>
<text text-anchor="middle" x="957.1932" y="-62.4546" font-family="Times,serif" font-size="14.00" fill="#000000">0.010</text>
</g>
<!-- A9 -->
<g id="node10" class="node">
<title>A9</title>
<ellipse fill="#fa8072" stroke="#000000" stroke-width="1.0057" cx="1138.6932" cy="-58.6546" rx="27" ry="18"/>
<text text-anchor="middle" x="1138.6932" y="-54.9546" font-family="Times,serif" font-size="14.00" fill="#000000">A9</text>
</g>
<!-- A8&#45;&gt;A9 -->
<g id="edge10" class="edge">
<title>A8&#45;&gt;A9</title>
<path fill="none" stroke="#000000" d="M1044.848,-58.6546C1061.5841,-58.6546 1083.2712,-58.6546 1101.5806,-58.6546"/>
<polygon fill="#000000" stroke="#000000" points="1101.6291,-62.1547 1111.6291,-58.6546 1101.629,-55.1547 1101.6291,-62.1547"/>
<text text-anchor="middle" x="1078.1932" y="-62.4546" font-family="Times,serif" font-size="14.00" fill="#000000">1.000</text>
</g>
<!-- A10 -->
<g id="node11" class="node">
<title>A10</title>
<ellipse fill="#fa8072" stroke="#000000" stroke-width="1.0057" cx="1259.6932" cy="-58.6546" rx="27" ry="18"/>
<text text-anchor="middle" x="1259.6932" y="-54.9546" font-family="Times,serif" font-size="14.00" fill="#000000">A10</text>
</g>
<!-- A9&#45;&gt;A10 -->
<g id="edge11" class="edge">
<title>A9&#45;&gt;A10</title>
<path fill="none" stroke="#000000" d="M1165.848,-58.6546C1182.5841,-58.6546 1204.2712,-58.6546 1222.5806,-58.6546"/>
<polygon fill="#000000" stroke="#000000" points="1222.6291,-62.1547 1232.6291,-58.6546 1222.629,-55.1547 1222.6291,-62.1547"/>
<text text-anchor="middle" x="1199.1932" y="-62.4546" font-family="Times,serif" font-size="14.00" fill="#000000">1.000</text>
</g>
<!-- A11 -->
<g id="node12" class="node">
<title>A11</title>
<ellipse fill="#fa8072" stroke="#000000" stroke-width="1.0057" cx="1380.6932" cy="-58.6546" rx="27" ry="18"/>
<text text-anchor="middle" x="1380.6932" y="-54.9546" font-family="Times,serif" font-size="14.00" fill="#000000">A11</text>
</g>
<!-- A10&#45;&gt;A11 -->
<g id="edge12" class="edge">
<title>A10&#45;&gt;A11</title>
<path fill="none" stroke="#000000" d="M1286.848,-58.6546C1303.5841,-58.6546 1325.2712,-58.6546 1343.5806,-58.6546"/>
<polygon fill="#000000" stroke="#000000" points="1343.6291,-62.1547 1353.6291,-58.6546 1343.629,-55.1547 1343.6291,-62.1547"/>
<text text-anchor="middle" x="1320.1932" y="-62.4546" font-family="Times,serif" font-size="14.00" fill="#000000">1.000</text>
</g>
<!-- A12 -->
<g id="node13" class="node">
<title>A12</title>
<ellipse fill="#fa8072" stroke="#000000" stroke-width="1.927" cx="1622.6932" cy="-48.6546" rx="27" ry="18"/>
<text text-anchor="middle" x="1622.6932" y="-44.9546" font-family="Times,serif" font-size="14.00" fill="#000000">A12</text>
</g>
<!-- A11&#45;&gt;A12 -->
<g id="edge13" class="edge">
<title>A11&#45;&gt;A12</title>
<path fill="none" stroke="#929292" d="M1404.1547,-49.2532C1410.9871,-46.9506 1418.5399,-44.8154 1425.6932,-43.6546 1481.0289,-34.6748 1546.2357,-39.2388 1586.007,-43.6876"/>
<polygon fill="#929292" stroke="#929292" points="1585.6939,-47.1748 1596.0345,-44.8677 1586.5122,-40.2228 1585.6939,-47.1748"/>
<text text-anchor="middle" x="1501.6932" y="-42.4546" font-family="Times,serif" font-size="14.00" fill="#000000">0.160</text>
</g>
<!-- A22 -->
<g id="node23" class="node">
<title>A22</title>
<ellipse fill="#fa8072" stroke="#000000" stroke-width="1.0036" cx="1501.6932" cy="-93.6546" rx="27" ry="18"/>
<text text-anchor="middle" x="1501.6932" y="-89.9546" font-family="Times,serif" font-size="14.00" fill="#000000">A22</text>
</g>
<!-- A11&#45;&gt;A22 -->
<g id="edge31" class="edge">
<title>A11&#45;&gt;A22</title>
<path fill="none" stroke="#636363" d="M1405.4453,-51.3546C1420.7043,-48.138 1440.4012,-46.3456 1456.6932,-52.6546 1466.1024,-56.2982 1474.752,-62.9262 1481.9,-69.806"/>
<polygon fill="#636363" stroke="#636363" points="1479.5835,-72.4471 1489.0319,-77.2408 1484.6351,-67.6013 1479.5835,-72.4471"/>
<text text-anchor="middle" x="1441.1932" y="-56.4546" font-family="Times,serif" font-size="14.00" fill="#000000">0.360</text>
</g>
<!-- A23 -->
<g id="node24" class="node">
<title>A23</title>
<ellipse fill="#fa8072" stroke="#000000" stroke-width="1.3883" cx="1864.6932" cy="-234.6546" rx="27" ry="18"/>
<text text-anchor="middle" x="1864.6932" y="-230.9546" font-family="Times,serif" font-size="14.00" fill="#000000">A23</text>
</g>
<!-- A11&#45;&gt;A23 -->
<g id="edge38" class="edge">
<title>A11&#45;&gt;A23</title>
<path fill="none" stroke="#4b4b4b" d="M1406.2035,-65.3174C1422.7534,-70.8752 1443.5985,-80.399 1456.6932,-95.6546 1474.2728,-116.1351 1454.6798,-135.545 1474.6932,-153.6546 1509.3355,-185.0015 1531.9387,-165.2077 1577.6932,-174.6546 1668.0822,-193.3172 1774.4017,-215.6418 1828.7439,-227.0793"/>
<polygon fill="#4b4b4b" stroke="#4b4b4b" points="1828.0784,-230.5158 1838.5849,-229.1511 1829.5205,-223.666 1828.0784,-230.5158"/>
<text text-anchor="middle" x="1622.6932" y="-192.4546" font-family="Times,serif" font-size="14.00" fill="#000000">0.480</text>
</g>
<!-- A13 -->
<g id="node14" class="node">
<title>A13</title>
<ellipse fill="#fa8072" stroke="#000000" stroke-width="1.5416" cx="1743.6932" cy="-48.6546" rx="27" ry="18"/>
<text text-anchor="middle" x="1743.6932" y="-44.9546" font-family="Times,serif" font-size="14.00" fill="#000000">A13</text>
</g>
<!-- A12&#45;&gt;A13 -->
<g id="edge14" class="edge">
<title>A12&#45;&gt;A13</title>
<path fill="none" stroke="#000000" d="M1649.848,-48.6546C1666.5841,-48.6546 1688.2712,-48.6546 1706.5806,-48.6546"/>
<polygon fill="#000000" stroke="#000000" points="1706.6291,-52.1547 1716.6291,-48.6546 1706.629,-45.1547 1706.6291,-52.1547"/>
<text text-anchor="middle" x="1683.1932" y="-52.4546" font-family="Times,serif" font-size="14.00" fill="#000000">1.000</text>
</g>
<!-- A13&#45;&gt;A12 -->
<g id="edge15" class="edge">
<title>A13&#45;&gt;A12</title>
<path fill="none" stroke="#161616" d="M1721.7698,-59.3593C1714.5902,-62.3347 1706.4599,-65.1588 1698.6932,-66.6546 1685.164,-69.2601 1681.2224,-69.2601 1667.6932,-66.6546 1663.203,-65.7899 1658.5914,-64.4811 1654.1122,-62.9559"/>
<polygon fill="#161616" stroke="#161616" points="1655.208,-59.6283 1644.6166,-59.3593 1652.7285,-66.1745 1655.208,-59.6283"/>
<text text-anchor="middle" x="1683.1932" y="-71.4546" font-family="Times,serif" font-size="14.00" fill="#000000">0.814</text>
</g>
<!-- A14 -->
<g id="node15" class="node">
<title>A14</title>
<ellipse fill="#fa8072" stroke="#000000" stroke-width="1.2715" cx="3316.6932" cy="-177.6546" rx="27" ry="18"/>
<text text-anchor="middle" x="3316.6932" y="-173.9546" font-family="Times,serif" font-size="14.00" fill="#000000">A14</text>
</g>
<!-- A13&#45;&gt;A14 -->
<g id="edge16" class="edge">
<title>A13&#45;&gt;A14</title>
<path fill="none" stroke="#bdbdbd" d="M1770.9447,-49.722C1874.3372,-53.7709 2252.2759,-68.5636 2563.6932,-80.6546 2770.8027,-88.6957 2823.1067,-81.8901 3029.6932,-98.6546 3083.7051,-103.0376 3098.1307,-100.4759 3150.6932,-113.6546 3199.0222,-125.7718 3252.3563,-148.0301 3285.1984,-162.8378"/>
<polygon fill="#bdbdbd" stroke="#bdbdbd" points="3284.1539,-166.2083 3294.7046,-167.1747 3287.0594,-159.8398 3284.1539,-166.2083"/>
<text text-anchor="middle" x="2530.1932" y="-83.4546" font-family="Times,serif" font-size="14.00" fill="#000000">0.006</text>
</g>
<!-- A13&#45;&gt;A23 -->
<g id="edge34" class="edge">
<title>A13&#45;&gt;A23</title>
<path fill="none" stroke="#8e8e8e" d="M1752.7732,-65.7586C1760.9752,-80.2685 1773.9893,-101.1388 1788.6932,-116.6546 1800.494,-129.107 1808.807,-126.3952 1819.6932,-139.6546 1828.7517,-150.6879 1843.5444,-183.7147 1853.6798,-207.7335"/>
<polygon fill="#8e8e8e" stroke="#8e8e8e" points="1850.494,-209.1876 1857.5767,-217.0672 1856.9536,-206.4907 1850.494,-209.1876"/>
<text text-anchor="middle" x="1804.1932" y="-143.4546" font-family="Times,serif" font-size="14.00" fill="#000000">0.176</text>
</g>
<!-- A29 -->
<g id="node30" class="node">
<title>A29</title>
<ellipse fill="#fa8072" stroke="#000000" stroke-width="1.3134" cx="2590.6932" cy="-199.6546" rx="27" ry="18"/>
<text text-anchor="middle" x="2590.6932" y="-195.9546" font-family="Times,serif" font-size="14.00" fill="#000000">A29</text>
</g>
<!-- A13&#45;&gt;A29 -->
<g id="edge54" class="edge">
<title>A13&#45;&gt;A29</title>
<path fill="none" stroke="#bebebe" d="M1768.6338,-55.951C1787.4666,-61.2333 1814.0233,-68.1999 1837.6932,-72.6546 2074.4407,-117.2101 2136.9773,-106.2618 2375.6932,-138.6546 2452.0453,-149.0152 2475.5922,-140.6728 2545.6932,-172.6546 2551.3219,-175.2225 2557.1308,-178.3279 2562.6282,-181.505"/>
<polygon fill="#bebebe" stroke="#bebebe" points="2561.1252,-184.6851 2571.4992,-186.837 2564.7314,-178.6855 2561.1252,-184.6851"/>
<text text-anchor="middle" x="2167.1932" y="-120.4546" font-family="Times,serif" font-size="14.00" fill="#000000">0.004</text>
</g>
<!-- A35 -->
<g id="node36" class="node">
<title>A35</title>
<ellipse fill="#fa8072" stroke="#000000" stroke-width="1.2507" cx="1864.6932" cy="-142.6546" rx="27" ry="18"/>
<text text-anchor="middle" x="1864.6932" y="-138.9546" font-family="Times,serif" font-size="14.00" fill="#000000">A35</text>
</g>
<!-- A13&#45;&gt;A35 -->
<g id="edge82" class="edge">
<title>A13&#45;&gt;A35</title>
<path fill="none" stroke="#bfbfbf" d="M1762.7907,-61.5553C1781.7822,-74.4591 1809.5122,-93.5232 1819.6932,-101.6546 1827.0533,-107.533 1834.7429,-114.2878 1841.6404,-120.5961"/>
<polygon fill="#bfbfbf" stroke="#bfbfbf" points="1839.5978,-123.4757 1849.3065,-127.7173 1844.3619,-118.3471 1839.5978,-123.4757"/>
<text text-anchor="middle" x="1804.1932" y="-105.4546" font-family="Times,serif" font-size="14.00" fill="#000000">0.000</text>
</g>
<!-- A15 -->
<g id="node16" class="node">
<title>A15</title>
<ellipse fill="#fa8072" stroke="#000000" stroke-width="1.0172" cx="3437.6932" cy="-177.6546" rx="27" ry="18"/>
<text text-anchor="middle" x="3437.6932" y="-173.9546" font-family="Times,serif" font-size="14.00" fill="#000000">A15</text>
</g>
<!-- A14&#45;&gt;A15 -->
<g id="edge17" class="edge">
<title>A14&#45;&gt;A15</title>
<path fill="none" stroke="#000000" d="M3343.848,-177.6546C3360.5841,-177.6546 3382.2712,-177.6546 3400.5806,-177.6546"/>
<polygon fill="#000000" stroke="#000000" points="3400.6291,-181.1547 3410.6291,-177.6546 3400.629,-174.1547 3400.6291,-181.1547"/>
<text text-anchor="middle" x="3377.1932" y="-181.4546" font-family="Times,serif" font-size="14.00" fill="#000000">1.000</text>
</g>
<!-- A16 -->
<g id="node17" class="node">
<title>A16</title>
<ellipse fill="#fa8072" stroke="#000000" stroke-width="1.0172" cx="3558.6932" cy="-177.6546" rx="27" ry="18"/>
<text text-anchor="middle" x="3558.6932" y="-173.9546" font-family="Times,serif" font-size="14.00" fill="#000000">A16</text>
</g>
<!-- A15&#45;&gt;A16 -->
<g id="edge18" class="edge">
<title>A15&#45;&gt;A16</title>
<path fill="none" stroke="#000000" d="M3464.848,-177.6546C3481.5841,-177.6546 3503.2712,-177.6546 3521.5806,-177.6546"/>
<polygon fill="#000000" stroke="#000000" points="3521.6291,-181.1547 3531.6291,-177.6546 3521.629,-174.1547 3521.6291,-181.1547"/>
<text text-anchor="middle" x="3498.1932" y="-181.4546" font-family="Times,serif" font-size="14.00" fill="#000000">1.000</text>
</g>
<!-- A17 -->
<g id="node18" class="node">
<title>A17</title>
<ellipse fill="#fa8072" stroke="#000000" stroke-width="1.0172" cx="3800.6932" cy="-226.6546" rx="27" ry="18"/>
<text text-anchor="middle" x="3800.6932" y="-222.9546" font-family="Times,serif" font-size="14.00" fill="#000000">A17</text>
</g>
<!-- A16&#45;&gt;A17 -->
<g id="edge19" class="edge">
<title>A16&#45;&gt;A17</title>
<path fill="none" stroke="#2c2c2c" d="M3585.4405,-173.9588C3600.0109,-172.433 3618.3526,-171.3022 3634.6932,-172.6546 3667.0241,-175.3304 3675.6313,-175.2948 3706.6932,-184.6546 3728.6422,-191.2684 3752.1913,-201.7965 3770.2284,-210.6571"/>
<polygon fill="#2c2c2c" stroke="#2c2c2c" points="3769.1286,-214.0208 3779.6369,-215.3726 3772.2652,-207.7629 3769.1286,-214.0208"/>
<text text-anchor="middle" x="3679.6932" y="-188.4546" font-family="Times,serif" font-size="14.00" fill="#000000">0.667</text>
</g>
<!-- A19 -->
<g id="node20" class="node">
<title>A19</title>
<ellipse fill="#fa8072" stroke="#000000" stroke-width="1.0057" cx="3679.6932" cy="-226.6546" rx="27" ry="18"/>
<text text-anchor="middle" x="3679.6932" y="-222.9546" font-family="Times,serif" font-size="14.00" fill="#000000">A19</text>
</g>
<!-- A16&#45;&gt;A19 -->
<g id="edge22" class="edge">
<title>A16&#45;&gt;A19</title>
<path fill="none" stroke="#696969" d="M3585.7977,-175.9537C3600.8094,-176.0233 3619.4583,-177.8257 3634.6932,-184.6546 3644.0031,-188.8276 3652.6275,-195.7293 3659.7829,-202.744"/>
<polygon fill="#696969" stroke="#696969" points="3657.5103,-205.4337 3666.9337,-210.2764 3662.587,-200.6142 3657.5103,-205.4337"/>
<text text-anchor="middle" x="3619.1932" y="-188.4546" font-family="Times,serif" font-size="14.00" fill="#000000">0.333</text>
</g>
<!-- A18 -->
<g id="node19" class="node">
<title>A18</title>
<ellipse fill="#fa8072" stroke="#000000" stroke-width="1.2715" cx="4284.6932" cy="-160.6546" rx="27" ry="18"/>
<text text-anchor="middle" x="4284.6932" y="-156.9546" font-family="Times,serif" font-size="14.00" fill="#000000">A18</text>
</g>
<!-- A17&#45;&gt;A18 -->
<g id="edge20" class="edge">
<title>A17&#45;&gt;A18</title>
<path fill="none" stroke="#6f6f6f" d="M3827.4643,-229.5121C3842.0417,-231.1467 3860.3824,-233.3309 3876.6932,-235.6546 3884.7225,-236.7985 3886.6105,-237.9856 3894.6932,-238.6546 3975.6118,-245.3516 4093.9524,-237.0897 4190.6932,-225.6546 4212.6822,-223.0554 4220.6763,-227.9961 4239.6932,-216.6546 4252.0336,-209.2948 4262.3803,-197.2184 4270.0287,-186.1609"/>
<polygon fill="#6f6f6f" stroke="#6f6f6f" points="4273.0629,-187.9148 4275.5705,-177.621 4267.1909,-184.1042 4273.0629,-187.9148"/>
<text text-anchor="middle" x="4042.6932" y="-243.4546" font-family="Times,serif" font-size="14.00" fill="#000000">0.307</text>
</g>
<!-- A20 -->
<g id="node21" class="node">
<title>A20</title>
<ellipse fill="#fa8072" stroke="#000000" stroke-width="1.0057" cx="4042.6932" cy="-160.6546" rx="27" ry="18"/>
<text text-anchor="middle" x="4042.6932" y="-156.9546" font-family="Times,serif" font-size="14.00" fill="#000000">A20</text>
</g>
<!-- A17&#45;&gt;A20 -->
<g id="edge24" class="edge">
<title>A17&#45;&gt;A20</title>
<path fill="none" stroke="#949494" d="M3811.1307,-209.6637C3819.1294,-198.1661 3831.2319,-183.6643 3845.6932,-175.6546 3896.0365,-147.7707 3965.0103,-149.9936 4006.5692,-154.8369"/>
<polygon fill="#949494" stroke="#949494" points="4006.1534,-158.3122 4016.5164,-156.108 4007.0407,-151.3686 4006.1534,-158.3122"/>
<text text-anchor="middle" x="3921.6932" y="-161.4546" font-family="Times,serif" font-size="14.00" fill="#000000">0.153</text>
</g>
<!-- A27 -->
<g id="node28" class="node">
<title>A27</title>
<ellipse fill="#fa8072" stroke="#000000" stroke-width="1.0093" cx="3921.6932" cy="-211.6546" rx="27" ry="18"/>
<text text-anchor="middle" x="3921.6932" y="-207.9546" font-family="Times,serif" font-size="14.00" fill="#000000">A27</text>
</g>
<!-- A17&#45;&gt;A27 -->
<g id="edge46" class="edge">
<title>A17&#45;&gt;A27</title>
<path fill="none" stroke="#414141" d="M3812.4554,-210.3368C3820.5541,-200.5722 3832.2535,-189.0434 3845.6932,-183.6546 3858.4813,-178.527 3863.4455,-179.8695 3876.6932,-183.6546 3883.196,-185.5125 3889.6742,-188.6117 3895.6059,-192.0862"/>
<polygon fill="#414141" stroke="#414141" points="3894.0957,-195.2757 3904.4023,-197.7306 3897.8762,-189.3843 3894.0957,-195.2757"/>
<text text-anchor="middle" x="3861.1932" y="-187.4546" font-family="Times,serif" font-size="14.00" fill="#000000">0.540</text>
</g>
<!-- A18&#45;&gt;A8 -->
<g id="edge26" class="edge">
<title>A18&#45;&gt;A8</title>
<path fill="none" stroke="#bdbdbd" d="M4265.5746,-147.6675C4257.7907,-142.7882 4248.5528,-137.4985 4239.6932,-133.6546 4189.3977,-111.8329 4173.3078,-114.4584 4118.6932,-109.6546 3858.6253,-86.7792 2031.7195,-26.5443 1770.6932,-21.6546 1477.822,-16.1683 1401.3187,12.1717 1111.6932,-31.6546 1091.3441,-34.7338 1069.1915,-40.9501 1051.5052,-46.6424"/>
<polygon fill="#bdbdbd" stroke="#bdbdbd" points="1050.0472,-43.4384 1041.6553,-49.9058 1052.2487,-50.0832 1050.0472,-43.4384"/>
<text text-anchor="middle" x="2651.1932" y="-52.4546" font-family="Times,serif" font-size="14.00" fill="#000000">0.007</text>
</g>
<!-- A18&#45;&gt;A14 -->
<g id="edge21" class="edge">
<title>A18&#45;&gt;A14</title>
<path fill="none" stroke="#bbbbbb" d="M4260.1945,-152.5836C4241.3644,-146.6334 4214.6121,-138.7241 4190.6932,-133.6546 4145.6997,-124.1184 4133.6771,-122.738 4087.6932,-123.6546 3786.6249,-129.6558 3707.9855,-102.7441 3410.6932,-150.6546 3390.3746,-153.9291 3368.2236,-160.1557 3350.5306,-165.8048"/>
<polygon fill="#bbbbbb" stroke="#bbbbbb" points="3349.0868,-162.5949 3340.6759,-169.0375 3351.2687,-169.2461 3349.0868,-162.5949"/>
<text text-anchor="middle" x="3800.6932" y="-125.4546" font-family="Times,serif" font-size="14.00" fill="#000000">0.013</text>
</g>
<!-- A21 -->
<g id="node22" class="node">
<title>A21</title>
<ellipse fill="#fa8072" stroke="#000000" stroke-width="1.5218" cx="4526.6932" cy="-120.6546" rx="27" ry="18"/>
<text text-anchor="middle" x="4526.6932" y="-116.9546" font-family="Times,serif" font-size="14.00" fill="#000000">A21</text>
</g>
<!-- A18&#45;&gt;A21 -->
<g id="edge27" class="edge">
<title>A18&#45;&gt;A21</title>
<path fill="none" stroke="#575757" d="M4311.6593,-162.5813C4327.1659,-164.8024 4346.3519,-169.548 4360.6932,-179.6546 4372.4821,-187.9625 4365.9775,-199.8493 4378.6932,-206.6546 4399.8534,-217.9792 4410.3216,-215.3443 4432.6932,-206.6546 4464.2244,-194.4069 4491.6286,-166.102 4508.5842,-145.2951"/>
<polygon fill="#575757" stroke="#575757" points="4511.5369,-147.203 4514.9809,-137.1836 4506.0404,-142.8685 4511.5369,-147.203"/>
<text text-anchor="middle" x="4405.6932" y="-217.4546" font-family="Times,serif" font-size="14.00" fill="#000000">0.420</text>
</g>
<!-- A26 -->
<g id="node27" class="node">
<title>A26</title>
<ellipse fill="#fa8072" stroke="#000000" stroke-width="1.0726" cx="4405.6932" cy="-146.6546" rx="27" ry="18"/>
<text text-anchor="middle" x="4405.6932" y="-142.9546" font-family="Times,serif" font-size="14.00" fill="#000000">A26</text>
</g>
<!-- A18&#45;&gt;A26 -->
<g id="edge43" class="edge">
<title>A18&#45;&gt;A26</title>
<path fill="none" stroke="#3d3d3d" d="M4303.999,-147.6812C4311.658,-143.2676 4320.7598,-138.8879 4329.6932,-136.6546 4343.0387,-133.3182 4357.9978,-134.3065 4371.0916,-136.671"/>
<polygon fill="#3d3d3d" stroke="#3d3d3d" points="4370.6167,-140.1482 4381.1261,-138.806 4372.0735,-133.3015 4370.6167,-140.1482"/>
<text text-anchor="middle" x="4345.1932" y="-140.4546" font-family="Times,serif" font-size="14.00" fill="#000000">0.560</text>
</g>
<!-- A19&#45;&gt;A17 -->
<g id="edge23" class="edge">
<title>A19&#45;&gt;A17</title>
<path fill="none" stroke="#000000" d="M3706.848,-226.6546C3723.5841,-226.6546 3745.2712,-226.6546 3763.5806,-226.6546"/>
<polygon fill="#000000" stroke="#000000" points="3763.6291,-230.1547 3773.6291,-226.6546 3763.629,-223.1547 3763.6291,-230.1547"/>
<text text-anchor="middle" x="3740.1932" y="-230.4546" font-family="Times,serif" font-size="14.00" fill="#000000">1.000</text>
</g>
<!-- A20&#45;&gt;A18 -->
<g id="edge25" class="edge">
<title>A20&#45;&gt;A18</title>
<path fill="none" stroke="#4f4f4f" d="M4069.266,-164.6669C4084.1113,-167.3834 4102.771,-171.5962 4118.6932,-177.6546 4127.2466,-180.9091 4127.8341,-185.359 4136.6932,-187.6546 4181.1408,-199.1721 4195.5743,-192.3735 4239.6932,-179.6546 4244.1214,-178.378 4248.6974,-176.7872 4253.1589,-175.0731"/>
<polygon fill="#4f4f4f" stroke="#4f4f4f" points="4254.7083,-178.2209 4262.6411,-171.1979 4252.0602,-171.7412 4254.7083,-178.2209"/>
<text text-anchor="middle" x="4163.6932" y="-196.4546" font-family="Times,serif" font-size="14.00" fill="#000000">0.460</text>
</g>
<!-- A28 -->
<g id="node29" class="node">
<title>A28</title>
<ellipse fill="#fa8072" stroke="#000000" stroke-width="1.0031" cx="4163.6932" cy="-160.6546" rx="27" ry="18"/>
<text text-anchor="middle" x="4163.6932" y="-156.9546" font-family="Times,serif" font-size="14.00" fill="#000000">A28</text>
</g>
<!-- A20&#45;&gt;A28 -->
<g id="edge49" class="edge">
<title>A20&#45;&gt;A28</title>
<path fill="none" stroke="#414141" d="M4059.4137,-146.0666C4067.4043,-140.0448 4077.4485,-133.7564 4087.6932,-130.6546 4100.8798,-126.662 4105.5066,-126.662 4118.6932,-130.6546 4125.5763,-132.7386 4132.369,-136.2611 4138.5091,-140.1748"/>
<polygon fill="#414141" stroke="#414141" points="4136.7658,-143.2257 4146.9727,-146.0666 4140.7652,-137.4807 4136.7658,-143.2257"/>
<text text-anchor="middle" x="4103.1932" y="-134.4546" font-family="Times,serif" font-size="14.00" fill="#000000">0.540</text>
</g>
<!-- A21&#45;&gt;A8 -->
<g id="edge30" class="edge">
<title>A21&#45;&gt;A8</title>
<path fill="none" stroke="#bebebe" d="M4521.4348,-138.5446C4511.4401,-172.0693 4489.9617,-241.699 4481.6932,-249.6546 4465.281,-265.4456 4455.0595,-260.3573 4432.6932,-264.6546 4311.5044,-287.9386 4030.7065,-301.1463 3948.6932,-303.6546 3701.448,-311.2162 3639.9511,-285.7873 3392.6932,-278.6546 3378.9211,-278.2573 3375.0305,-275.1985 3361.6932,-278.6546 3326.2569,-287.837 3313.3177,-290.6915 3289.6932,-318.6546 3274.1807,-337.0159 3284.7202,-349.4537 3271.6932,-369.6546 3255.339,-395.0151 3250.6913,-405.3975 3222.6932,-416.6546 3180.2199,-433.7315 3165.4699,-416.9725 3119.6932,-416.6546 3087.6909,-416.4324 3079.6297,-417.7186 3047.6932,-415.6546 2993.6694,-412.1631 2980.2732,-409.3974 2926.6932,-401.6546 2654.4943,-362.3192 2589.6453,-333.6319 2321.6932,-271.6546 2259.8315,-257.346 2245.7574,-246.038 2182.6932,-238.6546 2115.5959,-230.799 2091.4239,-209.0651 2030.6932,-238.6546 2019.024,-244.3401 2023.9865,-255.255 2012.6932,-261.6546 1972.7138,-284.3097 1955.5566,-273.5099 1909.6932,-270.6546 1767.6315,-261.8101 1734.112,-240.8208 1595.6932,-207.6546 1541.7066,-194.719 1515.212,-214.6033 1474.6932,-176.6546 1455.9206,-159.0727 1476.7048,-137.8121 1456.6932,-121.6546 1396.7188,-73.2309 1188.0963,-95.8691 1111.6932,-85.6546 1089.8217,-82.7305 1083.8958,-83.767 1062.6932,-77.6546 1058.265,-76.378 1053.689,-74.7872 1049.2275,-73.0731"/>
<polygon fill="#bebebe" stroke="#bebebe" points="1050.3262,-69.7412 1039.7453,-69.1979 1047.678,-76.2209 1050.3262,-69.7412"/>
<text text-anchor="middle" x="2772.1932" y="-382.4546" font-family="Times,serif" font-size="14.00" fill="#000000">0.003</text>
</g>
<!-- A21&#45;&gt;A14 -->
<g id="edge29" class="edge">
<title>A21&#45;&gt;A14</title>
<path fill="none" stroke="#bbbbbb" d="M4519.5591,-138.1611C4511.9876,-155.2372 4498.7624,-181.2562 4481.6932,-199.6546 4463.8356,-218.9027 4457.8048,-224.987 4432.6932,-232.6546 4409.7394,-239.6633 4400.2686,-243.1666 4378.6932,-232.6546 4367.024,-226.9691 4372.3623,-215.3401 4360.6932,-209.6546 4348.3073,-203.6199 4343.3447,-207.7938 4329.6932,-209.6546 4288.559,-215.2615 4280.3264,-226.1458 4239.6932,-234.6546 4218.1613,-239.1634 4212.4746,-238.5687 4190.6932,-241.6546 4136.9242,-249.2724 4123.8669,-254.8676 4069.6932,-258.6546 3977.2455,-265.1171 3738.0659,-289.7079 3652.6932,-253.6546 3642.2708,-249.2531 3644.8235,-240.6921 3634.6932,-235.6546 3544.7012,-190.9045 3509.9205,-220.6255 3410.6932,-204.6546 3388.8325,-201.136 3382.9664,-201.7966 3361.6932,-195.6546 3357.5097,-194.4467 3353.1786,-192.9916 3348.9307,-191.4386"/>
<polygon fill="#bbbbbb" stroke="#bbbbbb" points="3349.8675,-188.0484 3339.2782,-187.7075 3347.3437,-194.5776 3349.8675,-188.0484"/>
<text text-anchor="middle" x="3921.6932" y="-274.4546" font-family="Times,serif" font-size="14.00" fill="#000000">0.013</text>
</g>
<!-- A21&#45;&gt;A21 -->
<g id="edge28" class="edge">
<title>A21&#45;&gt;A21</title>
<path fill="none" stroke="#030303" d="M4516.1463,-137.3186C4513.8026,-147.2796 4517.3182,-156.6546 4526.6932,-156.6546 4532.6991,-156.6546 4536.3002,-152.8071 4537.4967,-147.4228"/>
<polygon fill="#030303" stroke="#030303" points="4540.9929,-147.2265 4537.2401,-137.3186 4533.9952,-147.4043 4540.9929,-147.2265"/>
<text text-anchor="middle" x="4526.6932" y="-160.4546" font-family="Times,serif" font-size="14.00" fill="#000000">0.969</text>
</g>
<!-- A25 -->
<g id="node26" class="node">
<title>A25</title>
<ellipse fill="#fa8072" stroke="#000000" stroke-width="3.5377" cx="4647.6932" cy="-87.6546" rx="27" ry="18"/>
<text text-anchor="middle" x="4647.6932" y="-83.9546" font-family="Times,serif" font-size="14.00" fill="#000000">A25</text>
</g>
<!-- A21&#45;&gt;A25 -->
<g id="edge39" class="edge">
<title>A21&#45;&gt;A25</title>
<path fill="none" stroke="#bdbdbd" d="M4551.7645,-113.817C4569.4485,-108.994 4593.368,-102.4705 4612.8977,-97.1443"/>
<polygon fill="#bdbdbd" stroke="#bdbdbd" points="4613.9273,-100.4914 4622.654,-94.4834 4612.0855,-93.738 4613.9273,-100.4914"/>
<text text-anchor="middle" x="4587.1932" y="-111.4546" font-family="Times,serif" font-size="14.00" fill="#000000">0.007</text>
</g>
<!-- A21&#45;&gt;A29 -->
<g id="edge51" class="edge">
<title>A21&#45;&gt;A29</title>
<path fill="none" stroke="#bdbdbd" d="M4499.3655,-120.1787C4386.6997,-118.2436 3947.1671,-110.9593 3585.6932,-108.6546 3184.6408,-106.0975 3084.7657,-130.5201 2684.6932,-158.6546 2662.8968,-160.1874 2655.9456,-154.4526 2635.6932,-162.6546 2627.3381,-166.0383 2619.3463,-171.5506 2612.4776,-177.2991"/>
<polygon fill="#bdbdbd" stroke="#bdbdbd" points="2610.0729,-174.7545 2604.9757,-184.0426 2614.7525,-179.9604 2610.0729,-174.7545"/>
<text text-anchor="middle" x="3558.6932" y="-112.4546" font-family="Times,serif" font-size="14.00" fill="#000000">0.007</text>
</g>
<!-- A21&#45;&gt;A35 -->
<g id="edge70" class="edge">
<title>A21&#45;&gt;A35</title>
<path fill="none" stroke="#bebebe" d="M4523.2284,-138.6027C4517.9429,-161.6353 4505.8271,-201.6011 4481.6932,-226.6546 4465.0029,-243.9809 4456.1739,-244.4179 4432.6932,-249.6546 4409.2687,-254.8787 4402.4733,-252.896 4378.6932,-249.6546 4370.4664,-248.5332 4368.92,-245.776 4360.6932,-244.6546 4347.0417,-242.7938 4343.4472,-243.8451 4329.6932,-244.6546 4244.5853,-249.6632 4033.8011,-284.6459 3948.6932,-289.6546 3871.0295,-294.2251 3851.4383,-288.5262 3773.6932,-285.6546 3751.9121,-284.8501 3746.4173,-285.4226 3724.6932,-283.6546 3563.1877,-270.5104 3521.9547,-225.7165 3361.6932,-249.6546 3328.5998,-254.5977 3312.6963,-247.3552 3289.6932,-271.6546 3266.7205,-295.9218 3291.2241,-317.5403 3271.6932,-344.6546 3256.6312,-365.5648 3245.838,-364.3224 3222.6932,-375.6546 3192.1368,-390.6157 3184.2063,-395.789 3150.6932,-401.6546 3105.5924,-409.5483 3093.2709,-404.0208 3047.6932,-399.6546 2820.9721,-377.9354 2768.1287,-345.6099 2545.6932,-296.6546 2446.2574,-274.77 2416.2525,-286.4032 2321.6932,-248.6546 2312.9858,-245.1785 2312.2692,-241.4432 2303.6932,-237.6546 2260.0794,-218.3875 2246.2071,-221.8627 2200.6932,-207.6546 2192.6436,-205.1417 2190.9004,-203.592 2182.6932,-201.6546 2084.8171,-178.5492 2057.7823,-186.8279 1958.6932,-169.6546 1936.793,-165.859 1931.0465,-165.824 1909.6932,-159.6546 1905.6314,-158.4811 1901.4163,-157.1069 1897.2674,-155.6572"/>
<polygon fill="#bebebe" stroke="#bebebe" points="1898.4036,-152.3461 1887.8098,-152.1969 1895.9983,-158.9199 1898.4036,-152.3461"/>
<text text-anchor="middle" x="3195.6932" y="-401.4546" font-family="Times,serif" font-size="14.00" fill="#000000">0.001</text>
</g>
<!-- A22&#45;&gt;A12 -->
<g id="edge33" class="edge">
<title>A22&#45;&gt;A12</title>
<path fill="none" stroke="#828282" d="M1516.0203,-78.151C1524.2052,-70.3305 1535.1246,-61.4982 1546.6932,-56.6546 1558.6444,-51.6508 1572.537,-49.3004 1585.1507,-48.3073"/>
<polygon fill="#828282" stroke="#828282" points="1585.5747,-51.7898 1595.3747,-47.7637 1585.203,-44.7996 1585.5747,-51.7898"/>
<text text-anchor="middle" x="1562.1932" y="-60.4546" font-family="Times,serif" font-size="14.00" fill="#000000">0.226</text>
</g>
<!-- A22&#45;&gt;A22 -->
<g id="edge32" class="edge">
<title>A22&#45;&gt;A22</title>
<path fill="none" stroke="#575757" d="M1491.1463,-110.3186C1488.8026,-120.2796 1492.3182,-129.6546 1501.6932,-129.6546 1507.6991,-129.6546 1511.3002,-125.8071 1512.4967,-120.4228"/>
<polygon fill="#575757" stroke="#575757" points="1515.9929,-120.2265 1512.2401,-110.3186 1508.9952,-120.4043 1515.9929,-120.2265"/>
<text text-anchor="middle" x="1501.6932" y="-133.4546" font-family="Times,serif" font-size="14.00" fill="#000000">0.419</text>
</g>
<!-- A22&#45;&gt;A23 -->
<g id="edge37" class="edge">
<title>A22&#45;&gt;A23</title>
<path fill="none" stroke="#646464" d="M1526.0904,-101.6151C1573.6583,-117.3192 1681.9147,-153.9606 1770.6932,-190.6546 1791.9095,-199.4237 1815.2904,-210.3626 1833.4263,-219.1395"/>
<polygon fill="#646464" stroke="#646464" points="1832.3927,-222.5294 1842.9152,-223.7656 1835.4604,-216.2373 1832.3927,-222.5294"/>
<text text-anchor="middle" x="1683.1932" y="-165.4546" font-family="Times,serif" font-size="14.00" fill="#000000">0.355</text>
</g>
<!-- A24 -->
<g id="node25" class="node">
<title>A24</title>
<ellipse fill="#fa8072" stroke="#000000" stroke-width="1.1106" cx="1985.6932" cy="-234.6546" rx="27" ry="18"/>
<text text-anchor="middle" x="1985.6932" y="-230.9546" font-family="Times,serif" font-size="14.00" fill="#000000">A24</text>
</g>
<!-- A23&#45;&gt;A24 -->
<g id="edge35" class="edge">
<title>A23&#45;&gt;A24</title>
<path fill="none" stroke="#000000" d="M1891.848,-234.6546C1908.5841,-234.6546 1930.2712,-234.6546 1948.5806,-234.6546"/>
<polygon fill="#000000" stroke="#000000" points="1948.6291,-238.1547 1958.6291,-234.6546 1948.629,-231.1547 1948.6291,-238.1547"/>
<text text-anchor="middle" x="1925.1932" y="-238.4546" font-family="Times,serif" font-size="14.00" fill="#000000">1.000</text>
</g>
<!-- A24&#45;&gt;A12 -->
<g id="edge36" class="edge">
<title>A24&#45;&gt;A12</title>
<path fill="none" stroke="#060606" d="M1961.4788,-226.6169C1906.2501,-207.6195 1768.0024,-156.2604 1667.6932,-86.6546 1660.6049,-81.7359 1653.3008,-75.9316 1646.693,-70.3598"/>
<polygon fill="#060606" stroke="#060606" points="1648.6198,-67.3992 1638.7644,-63.5106 1644.0438,-72.6964 1648.6198,-67.3992"/>
<text text-anchor="middle" x="1804.1932" y="-173.4546" font-family="Times,serif" font-size="14.00" fill="#000000">0.940</text>
</g>
<!-- A24&#45;&gt;A23 -->
<g id="edge42" class="edge">
<title>A24&#45;&gt;A23</title>
<path fill="none" stroke="#adadad" d="M1962.7443,-244.5124C1955.7921,-247.032 1948.0471,-249.3861 1940.6932,-250.6546 1927.1159,-252.9965 1923.2705,-252.9965 1909.6932,-250.6546 1905.6715,-249.9609 1901.5329,-248.9425 1897.4709,-247.7499"/>
<polygon fill="#adadad" stroke="#adadad" points="1898.2351,-244.3167 1887.6421,-244.5124 1896.0451,-250.9653 1898.2351,-244.3167"/>
<text text-anchor="middle" x="1925.1932" y="-255.4546" font-family="Times,serif" font-size="14.00" fill="#000000">0.060</text>
</g>
<!-- A25&#45;&gt;A8 -->
<g id="edge41" class="edge">
<title>A25&#45;&gt;A8</title>
<path fill="none" stroke="#bebebe" d="M4620.653,-86.7732C4456.5437,-81.4409 3577.2216,-53.1056 2859.6932,-34.6546 2268.1928,-19.4443 2120.2806,-16.9884 1528.6932,-5.6546 1343.2895,-2.1025 1294.7671,9.8597 1111.6932,-19.6546 1089.6579,-23.207 1083.3479,-22.1954 1062.6932,-30.6546 1056.6582,-33.1262 1050.5157,-36.3754 1044.7877,-39.7823"/>
<polygon fill="#bebebe" stroke="#bebebe" points="1042.808,-36.8926 1036.2029,-45.1764 1046.5323,-42.8196 1042.808,-36.8926"/>
<text text-anchor="middle" x="2832.6932" y="-38.4546" font-family="Times,serif" font-size="14.00" fill="#000000">0.001</text>
</g>
<!-- A25&#45;&gt;A25 -->
<g id="edge40" class="edge">
<title>A25&#45;&gt;A25</title>
<path fill="none" stroke="#000000" d="M4637.1463,-104.3186C4634.8026,-114.2796 4638.3182,-123.6546 4647.6932,-123.6546 4653.6991,-123.6546 4657.3002,-119.8071 4658.4967,-114.4228"/>
<polygon fill="#000000" stroke="#000000" points="4661.9929,-114.2265 4658.2401,-104.3186 4654.9952,-114.4043 4661.9929,-114.2265"/>
<text text-anchor="middle" x="4647.6932" y="-127.4546" font-family="Times,serif" font-size="14.00" fill="#000000">0.993</text>
</g>
<!-- A39 -->
<g id="node40" class="node">
<title>A39</title>
<ellipse fill="#fa8072" stroke="#000000" stroke-width="1.0458" cx="4768.6932" cy="-94.6546" rx="27" ry="18"/>
<text text-anchor="middle" x="4768.6932" y="-90.9546" font-family="Times,serif" font-size="14.00" fill="#000000">A39</text>
</g>
<!-- A25&#45;&gt;A39 -->
<g id="edge75" class="edge">
<title>A25&#45;&gt;A39</title>
<path fill="none" stroke="#bdbdbd" d="M4672.2179,-95.4314C4678.7991,-97.1768 4685.9589,-98.7721 4692.6932,-99.6546 4705.4968,-101.3324 4719.5915,-101.0026 4732.129,-99.9526"/>
<polygon fill="#bdbdbd" stroke="#bdbdbd" points="4732.6354,-103.4193 4742.2319,-98.9296 4731.9301,-96.4549 4732.6354,-103.4193"/>
<text text-anchor="middle" x="4708.1932" y="-104.4546" font-family="Times,serif" font-size="14.00" fill="#000000">0.005</text>
</g>
<!-- A26&#45;&gt;A21 -->
<g id="edge45" class="edge">
<title>A26&#45;&gt;A21</title>
<path fill="none" stroke="#999999" d="M4431.6507,-141.0769C4448.9562,-137.3584 4471.9322,-132.4214 4490.9586,-128.3331"/>
<polygon fill="#999999" stroke="#999999" points="4491.7371,-131.7458 4500.7786,-126.223 4490.2664,-124.902 4491.7371,-131.7458"/>
<text text-anchor="middle" x="4466.1932" y="-140.4546" font-family="Times,serif" font-size="14.00" fill="#000000">0.132</text>
</g>
<!-- A26&#45;&gt;A26 -->
<g id="edge44" class="edge">
<title>A26&#45;&gt;A26</title>
<path fill="none" stroke="#0f0f0f" d="M4395.1463,-163.3186C4392.8026,-173.2796 4396.3182,-182.6546 4405.6932,-182.6546 4411.6991,-182.6546 4415.3002,-178.8071 4416.4967,-173.4228"/>
<polygon fill="#0f0f0f" stroke="#0f0f0f" points="4419.9929,-173.2265 4416.2401,-163.3186 4412.9952,-173.4043 4419.9929,-173.2265"/>
<text text-anchor="middle" x="4405.6932" y="-186.4546" font-family="Times,serif" font-size="14.00" fill="#000000">0.868</text>
</g>
<!-- A27&#45;&gt;A18 -->
<g id="edge47" class="edge">
<title>A27&#45;&gt;A18</title>
<path fill="none" stroke="#2c2c2c" d="M3948.9234,-211.6606C4017.2078,-211.6751 4190.3219,-211.7066 4190.6932,-211.6546 4213.1235,-208.5131 4219.6372,-208.1782 4239.6932,-197.6546 4247.3759,-193.6233 4254.9626,-188.1393 4261.6549,-182.6288"/>
<polygon fill="#2c2c2c" stroke="#2c2c2c" points="4264.3334,-184.9387 4269.5935,-175.7419 4259.7462,-179.6511 4264.3334,-184.9387"/>
<text text-anchor="middle" x="4103.1932" y="-215.4546" font-family="Times,serif" font-size="14.00" fill="#000000">0.667</text>
</g>
<!-- A27&#45;&gt;A20 -->
<g id="edge48" class="edge">
<title>A27&#45;&gt;A20</title>
<path fill="none" stroke="#696969" d="M3934.0291,-195.3817C3942.1909,-185.8946 3953.7506,-174.6496 3966.6932,-168.6546 3978.5437,-163.1654 3992.5178,-160.7148 4005.2301,-159.7776"/>
<polygon fill="#696969" stroke="#696969" points="4005.7053,-163.2598 4015.5374,-159.3128 4005.3898,-156.2669 4005.7053,-163.2598"/>
<text text-anchor="middle" x="3982.1932" y="-172.4546" font-family="Times,serif" font-size="14.00" fill="#000000">0.333</text>
</g>
<!-- A28&#45;&gt;A18 -->
<g id="edge50" class="edge">
<title>A28&#45;&gt;A18</title>
<path fill="none" stroke="#000000" d="M4190.848,-160.6546C4207.5841,-160.6546 4229.2712,-160.6546 4247.5806,-160.6546"/>
<polygon fill="#000000" stroke="#000000" points="4247.6291,-164.1547 4257.6291,-160.6546 4247.629,-157.1547 4247.6291,-164.1547"/>
<text text-anchor="middle" x="4224.1932" y="-164.4546" font-family="Times,serif" font-size="14.00" fill="#000000">1.000</text>
</g>
<!-- A29&#45;&gt;A29 -->
<g id="edge57" class="edge">
<title>A29&#45;&gt;A29</title>
<path fill="none" stroke="#b8b8b8" d="M2580.1463,-216.3186C2577.8026,-226.2796 2581.3182,-235.6546 2590.6932,-235.6546 2596.6991,-235.6546 2600.3002,-231.8071 2601.4967,-226.4228"/>
<polygon fill="#b8b8b8" stroke="#b8b8b8" points="2604.9929,-226.2265 2601.2401,-216.3186 2597.9952,-226.4043 2604.9929,-226.2265"/>
<text text-anchor="middle" x="2590.6932" y="-239.4546" font-family="Times,serif" font-size="14.00" fill="#000000">0.023</text>
</g>
<!-- A30 -->
<g id="node31" class="node">
<title>A30</title>
<ellipse fill="#fa8072" stroke="#000000" stroke-width="1.0495" cx="2711.6932" cy="-185.6546" rx="27" ry="18"/>
<text text-anchor="middle" x="2711.6932" y="-181.9546" font-family="Times,serif" font-size="14.00" fill="#000000">A30</text>
</g>
<!-- A29&#45;&gt;A30 -->
<g id="edge52" class="edge">
<title>A29&#45;&gt;A30</title>
<path fill="none" stroke="#020202" d="M2607.4137,-185.0666C2615.4043,-179.0448 2625.4485,-172.7564 2635.6932,-169.6546 2650.0239,-165.3156 2666.2223,-167.7515 2679.9716,-171.9012"/>
<polygon fill="#020202" stroke="#020202" points="2678.894,-175.2316 2689.4886,-175.1533 2681.1576,-168.6077 2678.894,-175.2316"/>
<text text-anchor="middle" x="2651.1932" y="-173.4546" font-family="Times,serif" font-size="14.00" fill="#000000">0.977</text>
</g>
<!-- A30&#45;&gt;A14 -->
<g id="edge53" class="edge">
<title>A30&#45;&gt;A14</title>
<path fill="none" stroke="#bebebe" d="M2738.2852,-181.5154C2744.3221,-180.7413 2750.7163,-180.0513 2756.6932,-179.6546 2770.4407,-178.7421 2773.9185,-179.3655 2787.6932,-179.6546 2957.1385,-183.2109 2999.2479,-192.0982 3168.6932,-195.6546 3192.6879,-196.1582 3198.8005,-197.9216 3222.6932,-195.6546 3242.1904,-193.8046 3263.6605,-189.8424 3281.1536,-186.1052"/>
<polygon fill="#bebebe" stroke="#bebebe" points="3281.9353,-189.517 3290.9487,-183.9485 3280.43,-182.6808 3281.9353,-189.517"/>
<text text-anchor="middle" x="3014.1932" y="-193.4546" font-family="Times,serif" font-size="14.00" fill="#000000">0.002</text>
</g>
<!-- A31 -->
<g id="node32" class="node">
<title>A31</title>
<ellipse fill="#fa8072" stroke="#000000" stroke-width="1.0494" cx="2832.6932" cy="-225.6546" rx="27" ry="18"/>
<text text-anchor="middle" x="2832.6932" y="-221.9546" font-family="Times,serif" font-size="14.00" fill="#000000">A31</text>
</g>
<!-- A30&#45;&gt;A31 -->
<g id="edge55" class="edge">
<title>A30&#45;&gt;A31</title>
<path fill="none" stroke="#000000" d="M2738.5361,-183.632C2753.4659,-183.4291 2772.1201,-184.7329 2787.6932,-190.6546 2795.6289,-193.6722 2803.299,-198.5973 2809.9905,-203.8128"/>
<polygon fill="#000000" stroke="#000000" points="2807.9823,-206.6971 2817.8893,-210.4526 2812.4866,-201.3387 2807.9823,-206.6971"/>
<text text-anchor="middle" x="2772.1932" y="-194.4546" font-family="Times,serif" font-size="14.00" fill="#000000">0.998</text>
</g>
<!-- A31&#45;&gt;A14 -->
<g id="edge56" class="edge">
<title>A31&#45;&gt;A14</title>
<path fill="none" stroke="#bababa" d="M2856.1547,-216.2532C2862.9871,-213.9506 2870.5399,-211.8154 2877.6932,-210.6546 2891.2931,-208.4476 2894.93,-210.0207 2908.6932,-210.6546 2966.6552,-213.3241 3110.7312,-231.9851 3168.6932,-234.6546 3192.6678,-235.7588 3199.5791,-241.1151 3222.6932,-234.6546 3248.1249,-227.5463 3273.5244,-211.4717 3291.4978,-198.1991"/>
<polygon fill="#bababa" stroke="#bababa" points="3293.856,-200.8026 3299.6922,-191.9601 3289.6156,-195.2331 3293.856,-200.8026"/>
<text text-anchor="middle" x="3074.6932" y="-232.4546" font-family="Times,serif" font-size="14.00" fill="#000000">0.016</text>
</g>
<!-- A31&#45;&gt;A29 -->
<g id="edge64" class="edge">
<title>A31&#45;&gt;A29</title>
<path fill="none" stroke="#868686" d="M2805.6462,-223.6854C2775.9425,-221.428 2726.855,-217.4187 2684.6932,-212.6546 2665.8491,-210.5253 2644.9463,-207.6825 2627.6461,-205.1983"/>
<polygon fill="#868686" stroke="#868686" points="2627.7899,-201.6825 2617.3904,-203.7075 2626.7829,-208.6097 2627.7899,-201.6825"/>
<text text-anchor="middle" x="2711.6932" y="-221.4546" font-family="Times,serif" font-size="14.00" fill="#000000">0.208</text>
</g>
<!-- A32 -->
<g id="node33" class="node">
<title>A32</title>
<ellipse fill="#fa8072" stroke="#000000" stroke-width="1.0201" cx="2953.6932" cy="-312.6546" rx="27" ry="18"/>
<text text-anchor="middle" x="2953.6932" y="-308.9546" font-family="Times,serif" font-size="14.00" fill="#000000">A32</text>
</g>
<!-- A31&#45;&gt;A32 -->
<g id="edge58" class="edge">
<title>A31&#45;&gt;A32</title>
<path fill="none" stroke="#5a5a5a" d="M2859.1367,-221.9587C2875.0322,-221.1934 2894.8042,-222.987 2908.6932,-233.6546 2926.4329,-247.2798 2915.3216,-261.3924 2926.6932,-280.6546 2928.4843,-283.6885 2930.565,-286.7206 2932.7615,-289.6429"/>
<polygon fill="#5a5a5a" stroke="#5a5a5a" points="2930.1043,-291.9233 2939.1139,-297.4982 2935.5473,-287.5217 2930.1043,-291.9233"/>
<text text-anchor="middle" x="2893.1932" y="-237.4546" font-family="Times,serif" font-size="14.00" fill="#000000">0.405</text>
</g>
<!-- A33 -->
<g id="node34" class="node">
<title>A33</title>
<ellipse fill="#fa8072" stroke="#000000" stroke-width="1.0347" cx="3074.6932" cy="-324.6546" rx="27" ry="18"/>
<text text-anchor="middle" x="3074.6932" y="-320.9546" font-family="Times,serif" font-size="14.00" fill="#000000">A33</text>
</g>
<!-- A31&#45;&gt;A33 -->
<g id="edge65" class="edge">
<title>A31&#45;&gt;A33</title>
<path fill="none" stroke="#616161" d="M2858.7641,-220.2187C2864.9419,-219.1534 2871.5278,-218.1983 2877.6932,-217.6546 2891.4177,-216.4441 2895.5066,-213.662 2908.6932,-217.6546 2917.8954,-220.4408 2917.783,-226.0418 2926.6932,-229.6546 2969.8321,-247.1459 2992.1662,-221.1112 3029.6932,-248.6546 3043.4771,-258.7714 3039.0625,-267.8946 3047.6932,-282.6546 3050.8887,-288.1195 3054.4584,-293.8845 3057.9286,-299.3336"/>
<polygon fill="#616161" stroke="#616161" points="3055.2244,-301.5976 3063.5914,-308.0971 3061.1037,-297.7984 3055.2244,-301.5976"/>
<text text-anchor="middle" x="2953.6932" y="-239.4546" font-family="Times,serif" font-size="14.00" fill="#000000">0.370</text>
</g>
<!-- A32&#45;&gt;A14 -->
<g id="edge59" class="edge">
<title>A32&#45;&gt;A14</title>
<path fill="none" stroke="#bdbdbd" d="M2975.0018,-324.1068C2993.5992,-333.456 3021.6179,-346.0106 3047.6932,-351.6546 3123.7305,-368.1129 3149.5684,-382.2123 3222.6932,-355.6546 3249.3833,-345.9612 3257.4129,-339.1983 3271.6932,-314.6546 3294.1837,-276 3272.3271,-256.8665 3289.6932,-215.6546 3291.7231,-210.8373 3294.4477,-206.0317 3297.387,-201.5386"/>
<polygon fill="#bdbdbd" stroke="#bdbdbd" points="3300.2542,-203.5459 3303.178,-193.3625 3294.5419,-199.5 3300.2542,-203.5459"/>
<text text-anchor="middle" x="3135.1932" y="-373.4546" font-family="Times,serif" font-size="14.00" fill="#000000">0.006</text>
</g>
<!-- A32&#45;&gt;A29 -->
<g id="edge67" class="edge">
<title>A32&#45;&gt;A29</title>
<path fill="none" stroke="#9b9b9b" d="M2933.6115,-300.4936C2926.01,-296.2825 2917.1486,-291.8279 2908.6932,-288.6546 2813.0069,-252.7439 2782.2845,-267.0086 2684.6932,-236.6546 2663.7806,-230.1501 2640.9035,-221.1874 2622.9544,-213.7125"/>
<polygon fill="#9b9b9b" stroke="#9b9b9b" points="2624.1076,-210.4003 2613.5335,-209.7378 2621.3865,-216.8498 2624.1076,-210.4003"/>
<text text-anchor="middle" x="2772.1932" y="-262.4546" font-family="Times,serif" font-size="14.00" fill="#000000">0.126</text>
</g>
<!-- A32&#45;&gt;A33 -->
<g id="edge60" class="edge">
<title>A32&#45;&gt;A33</title>
<path fill="none" stroke="#161616" d="M2967.2685,-296.7996C2971.5988,-291.6799 2976.3838,-285.957 2980.6932,-280.6546 2988.88,-270.5813 2987.024,-263.3401 2998.6932,-257.6546 3011.0791,-251.6199 3017.9322,-250.4779 3029.6932,-257.6546 3044.6249,-266.7661 3037.9913,-278.0996 3047.6932,-292.6546 3049.6473,-295.5861 3051.8293,-298.5547 3054.0828,-301.4412"/>
<polygon fill="#161616" stroke="#161616" points="3051.4465,-303.7461 3060.4936,-309.2598 3056.8596,-299.3077 3051.4465,-303.7461"/>
<text text-anchor="middle" x="3014.1932" y="-261.4546" font-family="Times,serif" font-size="14.00" fill="#000000">0.817</text>
</g>
<!-- A34 -->
<g id="node35" class="node">
<title>A34</title>
<ellipse fill="#fa8072" stroke="#000000" stroke-width="1.0166" cx="3195.6932" cy="-305.6546" rx="27" ry="18"/>
<text text-anchor="middle" x="3195.6932" y="-301.9546" font-family="Times,serif" font-size="14.00" fill="#000000">A34</text>
</g>
<!-- A32&#45;&gt;A34 -->
<g id="edge68" class="edge">
<title>A32&#45;&gt;A34</title>
<path fill="none" stroke="#b0b0b0" d="M2967.7659,-297.1735C2972.1229,-292.0738 2976.7979,-286.2682 2980.6932,-280.6546 2989.9959,-267.2482 2984.6075,-256.8926 2998.6932,-248.6546 3026.943,-232.1327 3116.2082,-268.7332 3164.2901,-290.6811"/>
<polygon fill="#b0b0b0" stroke="#b0b0b0" points="3163.0619,-293.9692 3173.6078,-294.9865 3165.9981,-287.6147 3163.0619,-293.9692"/>
<text text-anchor="middle" x="3074.6932" y="-267.4546" font-family="Times,serif" font-size="14.00" fill="#000000">0.051</text>
</g>
<!-- A33&#45;&gt;A14 -->
<g id="edge66" class="edge">
<title>A33&#45;&gt;A14</title>
<path fill="none" stroke="#a3a3a3" d="M3101.0802,-328.8951C3137.6419,-334.2948 3201.593,-341.8831 3222.6932,-332.6546 3252.0851,-319.7996 3256.0272,-307.6495 3271.6932,-279.6546 3286.1226,-253.8694 3276.9484,-242.3127 3289.6932,-215.6546 3291.948,-210.9383 3294.7839,-206.1828 3297.764,-201.7081"/>
<polygon fill="#a3a3a3" stroke="#a3a3a3" points="3300.631,-203.7158 3303.558,-193.5333 3294.92,-199.668 3300.631,-203.7158"/>
<text text-anchor="middle" x="3195.6932" y="-340.4546" font-family="Times,serif" font-size="14.00" fill="#000000">0.096</text>
</g>
<!-- A33&#45;&gt;A29 -->
<g id="edge61" class="edge">
<title>A33&#45;&gt;A29</title>
<path fill="none" stroke="#505050" d="M3050.657,-333.1768C3020.7717,-342.4119 2968.5875,-354.0289 2926.6932,-339.6546 2917.1069,-336.3654 2917.6831,-330.334 2908.6932,-325.6546 2885.5924,-313.6302 2709.2939,-265.2009 2684.6932,-256.6546 2662.6291,-248.9894 2655.7801,-249.575 2635.6932,-237.6546 2627.9824,-233.0787 2620.2742,-227.1791 2613.4716,-221.3996"/>
<polygon fill="#505050" stroke="#505050" points="2615.7666,-218.7568 2605.956,-214.7565 2611.1307,-224.0017 2615.7666,-218.7568"/>
<text text-anchor="middle" x="2832.6932" y="-311.4546" font-family="Times,serif" font-size="14.00" fill="#000000">0.455</text>
</g>
<!-- A33&#45;&gt;A34 -->
<g id="edge62" class="edge">
<title>A33&#45;&gt;A34</title>
<path fill="none" stroke="#515151" d="M3089.9451,-309.6722C3098.0663,-302.7486 3108.6445,-295.2716 3119.6932,-291.6546 3133.6132,-287.0976 3149.4823,-288.9733 3163.1065,-292.624"/>
<polygon fill="#515151" stroke="#515151" points="3162.4305,-296.0783 3173.018,-295.6846 3164.4959,-289.3899 3162.4305,-296.0783"/>
<text text-anchor="middle" x="3135.1932" y="-295.4546" font-family="Times,serif" font-size="14.00" fill="#000000">0.449</text>
</g>
<!-- A34&#45;&gt;A14 -->
<g id="edge63" class="edge">
<title>A34&#45;&gt;A14</title>
<path fill="none" stroke="#9b9b9b" d="M3211.0894,-290.56C3226.6267,-275.2105 3251.1879,-250.6249 3271.6932,-228.6546 3279.959,-219.7982 3288.8269,-209.8495 3296.4868,-201.1062"/>
<polygon fill="#9b9b9b" stroke="#9b9b9b" points="3299.1997,-203.3205 3303.1299,-193.4816 3293.9218,-198.7222 3299.1997,-203.3205"/>
<text text-anchor="middle" x="3256.1932" y="-264.4546" font-family="Times,serif" font-size="14.00" fill="#000000">0.124</text>
</g>
<!-- A34&#45;&gt;A29 -->
<g id="edge69" class="edge">
<title>A34&#45;&gt;A29</title>
<path fill="none" stroke="#0e0e0e" d="M3177.1403,-319.0023C3173.9971,-321.9063 3171.0073,-325.1649 3168.6932,-328.6546 3154.0109,-350.7952 3172.1211,-369.9503 3150.6932,-385.6546 3119.3256,-408.6435 2842.6827,-338.6627 2805.6932,-326.6546 2717.7776,-298.1139 2644.8569,-264.6099 2635.6932,-257.6546 2624.0781,-248.8387 2613.8567,-236.3177 2606.1033,-225.1644"/>
<polygon fill="#0e0e0e" stroke="#0e0e0e" points="2608.8761,-223.0126 2600.4348,-216.6098 2603.0409,-226.8791 2608.8761,-223.0126"/>
<text text-anchor="middle" x="2893.1932" y="-356.4546" font-family="Times,serif" font-size="14.00" fill="#000000">0.876</text>
</g>
<!-- A36 -->
<g id="node37" class="node">
<title>A36</title>
<ellipse fill="#fa8072" stroke="#000000" stroke-width="1.0006" cx="1985.6932" cy="-142.6546" rx="27" ry="18"/>
<text text-anchor="middle" x="1985.6932" y="-138.9546" font-family="Times,serif" font-size="14.00" fill="#000000">A36</text>
</g>
<!-- A35&#45;&gt;A36 -->
<g id="edge71" class="edge">
<title>A35&#45;&gt;A36</title>
<path fill="none" stroke="#000000" d="M1891.848,-142.6546C1908.5841,-142.6546 1930.2712,-142.6546 1948.5806,-142.6546"/>
<polygon fill="#000000" stroke="#000000" points="1948.6291,-146.1547 1958.6291,-142.6546 1948.629,-139.1547 1948.6291,-146.1547"/>
<text text-anchor="middle" x="1925.1932" y="-146.4546" font-family="Times,serif" font-size="14.00" fill="#000000">1.000</text>
</g>
<!-- A37 -->
<g id="node38" class="node">
<title>A37</title>
<ellipse fill="#fa8072" stroke="#000000" stroke-width="1.0006" cx="2106.6932" cy="-142.6546" rx="27" ry="18"/>
<text text-anchor="middle" x="2106.6932" y="-138.9546" font-family="Times,serif" font-size="14.00" fill="#000000">A37</text>
</g>
<!-- A36&#45;&gt;A37 -->
<g id="edge72" class="edge">
<title>A36&#45;&gt;A37</title>
<path fill="none" stroke="#000000" d="M2012.848,-142.6546C2029.5841,-142.6546 2051.2712,-142.6546 2069.5806,-142.6546"/>
<polygon fill="#000000" stroke="#000000" points="2069.6291,-146.1547 2079.6291,-142.6546 2069.629,-139.1547 2069.6291,-146.1547"/>
<text text-anchor="middle" x="2046.1932" y="-146.4546" font-family="Times,serif" font-size="14.00" fill="#000000">1.000</text>
</g>
<!-- A37&#45;&gt;A29 -->
<g id="edge83" class="edge">
<title>A37&#45;&gt;A29</title>
<path fill="none" stroke="#888888" d="M2133.8061,-140.554C2139.6992,-140.1794 2145.9023,-139.8474 2151.6932,-139.6546 2165.4633,-139.1961 2168.9159,-139.5407 2182.6932,-139.6546 2236.4765,-140.099 2250.1157,-136.9332 2303.6932,-141.6546 2390.2351,-149.2808 2411.9001,-153.7392 2496.6932,-172.6546 2516.6417,-177.1046 2538.6136,-183.3395 2556.2954,-188.6967"/>
<polygon fill="#888888" stroke="#888888" points="2555.5758,-192.137 2566.1628,-191.7295 2557.6323,-185.446 2555.5758,-192.137"/>
<text text-anchor="middle" x="2348.6932" y="-152.4546" font-family="Times,serif" font-size="14.00" fill="#000000">0.200</text>
</g>
<!-- A38 -->
<g id="node39" class="node">
<title>A38</title>
<ellipse fill="#fa8072" stroke="#000000" stroke-width="1.0005" cx="2227.6932" cy="-180.6546" rx="27" ry="18"/>
<text text-anchor="middle" x="2227.6932" y="-176.9546" font-family="Times,serif" font-size="14.00" fill="#000000">A38</text>
</g>
<!-- A37&#45;&gt;A38 -->
<g id="edge73" class="edge">
<title>A37&#45;&gt;A38</title>
<path fill="none" stroke="#181818" d="M2133.7749,-142.3715C2148.6089,-142.9841 2167.0943,-145.0234 2182.6932,-150.6546 2189.4577,-153.0965 2196.2026,-156.7628 2202.3342,-160.7021"/>
<polygon fill="#181818" stroke="#181818" points="2200.5929,-163.7531 2210.8097,-166.5583 2204.5721,-157.9941 2200.5929,-163.7531"/>
<text text-anchor="middle" x="2167.1932" y="-154.4546" font-family="Times,serif" font-size="14.00" fill="#000000">0.800</text>
</g>
<!-- A38&#45;&gt;A29 -->
<g id="edge74" class="edge">
<title>A38&#45;&gt;A29</title>
<path fill="none" stroke="#1f1f1f" d="M2254.6063,-183.0794C2270.0947,-185.5538 2289.2801,-190.5534 2303.6932,-200.6546 2315.2026,-208.7208 2309.2439,-220.1318 2321.6932,-226.6546 2399.0275,-267.1741 2505.9995,-234.5551 2558.7097,-213.691"/>
<polygon fill="#1f1f1f" stroke="#1f1f1f" points="2560.2605,-216.8387 2568.2025,-209.8262 2557.6209,-210.3554 2560.2605,-216.8387"/>
<text text-anchor="middle" x="2409.1932" y="-249.4546" font-family="Times,serif" font-size="14.00" fill="#000000">0.750</text>
</g>
<!-- A41 -->
<g id="node42" class="node">
<title>A41</title>
<ellipse fill="#fa8072" stroke="#000000" stroke-width="1.0001" cx="2348.6932" cy="-199.6546" rx="27" ry="18"/>
<text text-anchor="middle" x="2348.6932" y="-195.9546" font-family="Times,serif" font-size="14.00" fill="#000000">A41</text>
</g>
<!-- A38&#45;&gt;A41 -->
<g id="edge84" class="edge">
<title>A38&#45;&gt;A41</title>
<path fill="none" stroke="#7c7c7c" d="M2243.9201,-165.9144C2251.9606,-159.5951 2262.1852,-152.9237 2272.6932,-149.6546 2285.849,-145.5617 2291.1072,-144.0492 2303.6932,-149.6546 2307.1281,-151.1844 2318.4961,-163.8295 2328.9458,-176.019"/>
<polygon fill="#7c7c7c" stroke="#7c7c7c" points="2326.4473,-178.484 2335.5875,-183.842 2331.7835,-173.9536 2326.4473,-178.484"/>
<text text-anchor="middle" x="2288.1932" y="-153.4546" font-family="Times,serif" font-size="14.00" fill="#000000">0.250</text>
</g>
<!-- A39&#45;&gt;A8 -->
<g id="edge80" class="edge">
<title>A39&#45;&gt;A8</title>
<path fill="none" stroke="#bcbcbc" d="M4752.0805,-109.2097C4705.6883,-148.6093 4569.18,-256.1589 4432.6932,-282.6546 3877.2894,-390.4732 3734.3882,-443.0024 3168.6932,-433.6546 3114.8934,-432.7656 3101.4407,-432.1878 3047.6932,-429.6546 2917.7245,-423.5289 2885.7947,-413.8465 2756.6932,-397.6546 2348.1526,-346.4153 2244.8579,-341.8736 1837.6932,-280.6546 1487.3021,-227.9717 1380.2162,-250.9078 1062.6932,-93.6546 1055.3345,-90.0102 1048.0189,-85.0517 1041.4914,-80.0137"/>
<polygon fill="#bcbcbc" stroke="#bcbcbc" points="1043.6688,-77.2732 1033.7009,-73.6827 1039.2541,-82.7056 1043.6688,-77.2732"/>
<text text-anchor="middle" x="2893.1932" y="-421.4546" font-family="Times,serif" font-size="14.00" fill="#000000">0.007</text>
</g>
<!-- A39&#45;&gt;A25 -->
<g id="edge76" class="edge">
<title>A39&#45;&gt;A25</title>
<path fill="none" stroke="#7e7e7e" d="M4744.7195,-85.7314C4738.0108,-83.6385 4730.6497,-81.7117 4723.6932,-80.6546 4710.6956,-78.6794 4696.3569,-79.2868 4683.669,-80.7716"/>
<polygon fill="#7e7e7e" stroke="#7e7e7e" points="4682.889,-77.3462 4673.4651,-82.1877 4683.8513,-84.2797 4682.889,-77.3462"/>
<text text-anchor="middle" x="4708.1932" y="-84.4546" font-family="Times,serif" font-size="14.00" fill="#000000">0.240</text>
</g>
<!-- A39&#45;&gt;A39 -->
<g id="edge77" class="edge">
<title>A39&#45;&gt;A39</title>
<path fill="none" stroke="#282828" d="M4758.1463,-111.3186C4755.8026,-121.2796 4759.3182,-130.6546 4768.6932,-130.6546 4774.6991,-130.6546 4778.3002,-126.8071 4779.4967,-121.4228"/>
<polygon fill="#282828" stroke="#282828" points="4782.9929,-121.2265 4779.2401,-111.3186 4775.9952,-121.4043 4782.9929,-121.2265"/>
<text text-anchor="middle" x="4768.6932" y="-134.4546" font-family="Times,serif" font-size="14.00" fill="#000000">0.690</text>
</g>
<!-- A40 -->
<g id="node41" class="node">
<title>A40</title>
<ellipse fill="#fa8072" stroke="#000000" stroke-width="1.0028" cx="4891.2907" cy="-153.6546" rx="27" ry="18"/>
<text text-anchor="middle" x="4891.2907" y="-149.9546" font-family="Times,serif" font-size="14.00" fill="#000000">A40</text>
</g>
<!-- A39&#45;&gt;A40 -->
<g id="edge78" class="edge">
<title>A39&#45;&gt;A40</title>
<path fill="none" stroke="#adadad" d="M4790.6112,-105.2026C4809.9297,-114.4996 4838.2979,-128.1518 4860.0022,-138.597"/>
<polygon fill="#adadad" stroke="#adadad" points="4858.6205,-141.8162 4869.1491,-142.999 4861.656,-135.5086 4858.6205,-141.8162"/>
<text text-anchor="middle" x="4829.1932" y="-134.4546" font-family="Times,serif" font-size="14.00" fill="#000000">0.060</text>
</g>
<!-- END -->
<g id="node44" class="node">
<title>END</title>
<ellipse fill="#ffffff" stroke="#000000" stroke-width="1.2501" cx="4891.2907" cy="-92.6546" rx="28.6953" ry="18"/>
<text text-anchor="middle" x="4891.2907" y="-88.9546" font-family="Times,serif" font-size="14.00" fill="#000000">END</text>
</g>
<!-- A39&#45;&gt;END -->
<g id="edge87" class="edge">
<title>A39&#45;&gt;END</title>
<path fill="none" stroke="#bebebe" d="M4795.9015,-94.2107C4812.4903,-93.9401 4833.963,-93.5898 4852.334,-93.2901"/>
<polygon fill="#bebebe" stroke="#bebebe" points="4852.5086,-96.7878 4862.4502,-93.1251 4852.3944,-89.7887 4852.5086,-96.7878"/>
<text text-anchor="middle" x="4829.1932" y="-97.4546" font-family="Times,serif" font-size="14.00" fill="#000000">0.003</text>
</g>
<!-- A40&#45;&gt;A25 -->
<g id="edge81" class="edge">
<title>A40&#45;&gt;A25</title>
<path fill="none" stroke="#909090" d="M4870.6572,-165.7928C4862.8033,-169.7603 4853.5972,-173.6583 4844.6932,-175.6546 4831.2492,-178.6687 4827.3325,-177.603 4813.6932,-175.6546 4780.6949,-170.9405 4771.6861,-169.199 4741.6932,-154.6546 4716.2043,-142.2943 4690.2048,-123.157 4672.0295,-108.4949"/>
<polygon fill="#909090" stroke="#909090" points="4674.2085,-105.7554 4664.2592,-102.1136 4669.7659,-111.165 4674.2085,-105.7554"/>
<text text-anchor="middle" x="4768.6932" y="-176.4546" font-family="Times,serif" font-size="14.00" fill="#000000">0.167</text>
</g>
<!-- A40&#45;&gt;A39 -->
<g id="edge79" class="edge">
<title>A40&#45;&gt;A39</title>
<path fill="none" stroke="#141414" d="M4864.7738,-157.4538C4849.1077,-158.4776 4829.3418,-157.5698 4813.6932,-149.6546 4801.0103,-143.2394 4790.6293,-131.46 4783.0469,-120.4433"/>
<polygon fill="#141414" stroke="#141414" points="4785.9121,-118.4272 4777.5754,-111.8888 4780.0151,-122.199 4785.9121,-118.4272"/>
<text text-anchor="middle" x="4829.1932" y="-160.4546" font-family="Times,serif" font-size="14.00" fill="#000000">0.833</text>
</g>
<!-- A42 -->
<g id="node43" class="node">
<title>A42</title>
<ellipse fill="#fa8072" stroke="#000000" stroke-width="1.0001" cx="2469.6932" cy="-199.6546" rx="27" ry="18"/>
<text text-anchor="middle" x="2469.6932" y="-195.9546" font-family="Times,serif" font-size="14.00" fill="#000000">A42</text>
</g>
<!-- A41&#45;&gt;A42 -->
<g id="edge85" class="edge">
<title>A41&#45;&gt;A42</title>
<path fill="none" stroke="#000000" d="M2375.848,-199.6546C2392.5841,-199.6546 2414.2712,-199.6546 2432.5806,-199.6546"/>
<polygon fill="#000000" stroke="#000000" points="2432.6291,-203.1547 2442.6291,-199.6546 2432.629,-196.1547 2432.6291,-203.1547"/>
<text text-anchor="middle" x="2409.1932" y="-203.4546" font-family="Times,serif" font-size="14.00" fill="#000000">1.000</text>
</g>
<!-- A42&#45;&gt;A29 -->
<g id="edge86" class="edge">
<title>A42&#45;&gt;A29</title>
<path fill="none" stroke="#000000" d="M2496.848,-199.6546C2513.5841,-199.6546 2535.2712,-199.6546 2553.5806,-199.6546"/>
<polygon fill="#000000" stroke="#000000" points="2553.6291,-203.1547 2563.6291,-199.6546 2553.629,-196.1547 2553.6291,-203.1547"/>
<text text-anchor="middle" x="2530.1932" y="-203.4546" font-family="Times,serif" font-size="14.00" fill="#000000">1.000</text>
</g>
</g>
</svg>
